<svg width="101" height="100" fill="none" xmlns="http://www.w3.org/2000/svg"><g opacity=".1"><circle cx="50.5" cy="50" r="50" fill="#2F70FE"/><circle cx="50.5" cy="50" r="50" stroke="#2F70FE"/></g><path d="M47.5 46.5c0 2.2-1.8 4-4 4h-12c-2.2 0-4-1.8-4-4v-12c0-2.2 1.8-4 4-4h12c2.2 0 4 1.8 4 4v12zm-20-10h20m6 10c0 2.2 1.8 4 4 4h12c2.2 0 4-1.8 4-4v-12c0-2.2-1.8-4-4-4h-12c-2.2 0-4 1.8-4 4v12zm20-10h-20m-6 36c0 2.2-1.8 4-4 4h-12c-2.2 0-4-1.8-4-4v-12c0-2.2 1.8-4 4-4h12c2.2 0 4 1.8 4 4v12zm-20-10h20m6 10c0 2.2 1.8 4 4 4h12c2.2 0 4-1.8 4-4v-12c0-2.2-1.8-4-4-4h-12c-2.2 0-4 1.8-4 4v12zm20-10h-20" stroke="#000" stroke-miterlimit="10" stroke-linecap="round" stroke-linejoin="round"/></svg>