<svg width="100" height="100" fill="none" xmlns="http://www.w3.org/2000/svg"><g opacity=".2"><circle cx="50" cy="50" r="50" fill="#6DED02"/><circle cx="50" cy="50" r="50" stroke="#88BDDA"/></g><g clip-path="url(#clip0_1_1473)" stroke="#000" stroke-miterlimit="10" stroke-linecap="round" stroke-linejoin="round"><path d="M45 63c9.941 0 18-8.059 18-18s-8.059-18-18-18-18 8.059-18 18 8.059 18 18 18zm12.8-5.2L73 73"/><path d="M42 47.2v3.4L34 54m14-6.8v3.4l8 3.4"/><path d="M51.4 40.4c0 4.2-2.8 7.6-6.4 7.6-3.6 0-6.4-3.4-6.4-7.6 0-4.2 2.8-7.6 6.4-7.6 3.6-.2 6.4 3.2 6.4 7.6z"/><path d="M51.4 39.4h-.8c-2 .4-3.4-.4-4.6-2.4-.6 1.4-2.8 2.4-4.6 2.4-.8 0-2-.2-2.6-.6"/></g><defs><clipPath id="clip0_1_1473"><path fill="#fff" transform="translate(26 26)" d="M0 0h48v48H0z"/></clipPath></defs></svg>