<svg width="390" height="255" fill="none" xmlns="http://www.w3.org/2000/svg"><path d="M200.653 209.12c-22.599 2.338-178.497 15.09-197.92 20.942-19.423 5.853 97.047 3.57 111.956 2.745 14.91-.825 26.537 2.425 9.493 6.712-17.043 4.288 66.979 1.378 113.359-2.052 46.381-3.431 1.922-7.28 29.194-10.102 27.306-2.853 122.458-10.168 99.601-13.699-22.858-3.53 32.811-8.231 19.721-10.845-13.056-2.616-144.985 2.087-185.404 6.299z" fill="#00FF85" fill-opacity=".08"/><g style="mix-blend-mode:luminosity" clip-path="url(#clip0_20_679)"><path d="M122.677 206.726s-4.531 11.591-3.998 12.124c.533.577 5.064.755 5.464.755h9.818s3.643-8.438 3.332-8.704c-.311-.223-8.174-5.196-8.174-5.196l-6.442 1.021z" fill="#1631A4"/><path d="M132.317 210.856s-7.152.977-13.327-2.931c0 0 9.329-53.78 9.818-56.755.489-2.976-.489-40.724-.489-40.724l14.261-4.352s3.065 57.999 2.887 57.466c-.133-.488-13.15 47.296-13.15 47.296z" fill="#1631A4"/><path d="M102.552 137.847c-.044-.178-2.354-17.808 13.106-20.473 4.398-.755 8.174 0 11.328 2.221 5.82 4.085 7.153 11.724 7.197 12.079l-2.621.444c-.089-.577-2.621-14.344-15.504-12.124-12.928 2.221-11.018 16.876-10.929 17.498l-2.577.355z" fill="#01008A"/><path d="M147.511 13.278s-1.199 8.483-3.687 13.59c-2.488 5.107-3.732 4.618-4.354 4.618-.622 0-12.661-6.972-12.661-6.972L123.61 13.59l9.329-6.306 7.819 1.777 6.753 4.218z" fill="#fff"/><path d="M138.048 30.82s-2.798.133-3.598 4.797l-.755 4.663-10.929-3.464 5.287-13.19 9.995 7.194z" fill="#fff"/><path d="M131.562 17.808s-1.11-3.952-3.687-2.62c-2.577 1.332.489 7.195 2.266 6.706l-2.621 3.064-1.111 2.754s-8.219-6.706-7.464-13.99c.756-7.238 5.109-7.105 5.109-7.105s-.933-4.752 5.109-6.395c6.042-1.643 23.013 7.461 27.278 5.107 0 0-5.154 14.744-12.928 9.992-7.775-4.751-11.951 2.487-11.951 2.487z" fill="#231F20"/><path d="M122.766 36.816l.355-3.997 13.373 3.997.755 6.084-14.483-6.084z" fill="#E5E5E6"/><path d="M159.995 81.403s4.575-1.288 6.175-2.132c1.599-.888 2.887-1.954 3.643-1.465.755.488-2.222 2.975-2.444 3.197-.222.222 6.264.266 7.153.4.888.177 3.776.888 3.776 1.42 0 .534-3.599 6.929-4.443 7.373-.888.444-9.862.222-10.484-.267-.622-.444-5.509-1.954-5.509-1.954s1.866-6.483 2.133-6.572z" fill="#fff"/><path d="M160.794 80.78s-13.15-3.063-13.905-6.616c-.666-3.153-4.309 3.108-4.309 3.108l.844 8.527s7.241 3.464 16.837 3.464l1.733-3.242s.844-4.663-1.2-5.24z" fill="#CBCBCB"/><path d="M143.557 213.077s2.088 4.707 5.242 7.194c3.155 2.487 5.376 1.111 7.064 4.93 0 0-24.523.222-25.278 0-.8-.222 4.265-11.28 5.198-11.902.933-.533 7.774-.222 7.774-.222z" fill="#1631A4"/><path d="M130.496 212.988s7.819 3.464 15.016 2.487c0 0 11.373-61.907 11.151-64.216-.222-2.309-9.463-61.996-9.463-61.996l-24.878 5.907s3.198 22.915 5.286 23.27c2.088.356 3.288 1.688 3.288 1.688s8.307 34.684 7.996 37.748c-.311 3.064-8.396 55.112-8.396 55.112z" fill="#01008A"/><path d="M149.377 89.44c-1.511 2.399-14.172 5.152-21.68 5.863-2.799.266-4.842.266-5.375-.178-1.999-1.554-1.555-6.484-1.866-7.372-.311-.888 0-.666.222-1.332s.444-1.999-.222-2.842c-.356-.444-.711-10.836-.977-21.14-.267-10.036-.4-19.984-.356-20.65.444-3.952 3.643-4.974 3.643-4.974s11.551 2.088 14.483 6.085c14.349 19.495 14.216 43.254 12.128 46.54z" fill="#6DED02"/><path d="M110.105 111.423s-.889 11.858 0 12.702c.888.843 2.221-.311 3.198 0 .978.31 2.044.266 2.488-.178.444-.4.755-.799 1.822-.755 1.066.044 2.043.311 2.399-.266.355-.578.799-1.377 1.599-1.51.844-.178 1.555-.178 1.599-1.066.045-.888-1.866-5.107-1.866-5.107l.134 2.398s1.555-.178 2.043-1.466c.444-1.288-6.486-8.127-6.486-8.127l-6.93 3.375z" fill="#fff"/><path d="M109.971 112.933s6.575-3.286 8.53-3.286c0 0 .267-3.197-1.288-3.553l-8.574 3.42s0 2.531 1.332 3.419z" fill="#FFD648"/><path d="M131.695 57.11c-3.642 6.796-10.217 20.34-7.685 22.96 2.532 2.62 6.397 1.422 3.643 2.71-2.755 1.287-5.287 1.91-3.199 2.93 2.088.978 3.732.445 1.644 2.443-1.91 1.82-1.377 6.217 1.644 7.194-2.799.267-4.843.267-5.376-.177-1.999-1.555-1.555-6.484-1.866-7.372-.311-.888 0-.666.222-1.332.223-.667.445-1.999-.222-2.843-.355-.444-.711-10.836-.977-21.139l13.239-17.053s2.532 4.84-1.067 11.68z" fill="#09D191"/><path d="M132.229 52.27c-1.2 3.02-2.755 6.129-4.354 9.148l-.045.045c-4.487 8.349-9.551 16.254-9.64 21.094-.133 6.662.089 22.205-.977 23.493-1.066 1.288-8.574 3.42-8.574 3.42s-5.909-31.265-5.331-33.618c.533-2.354 12.172-28.334 15.859-34.063 3.688-5.684 17.593-.932 13.062 10.481zm9.062 106.894l-37.495 7.327c-1.821.356-3.598-.843-3.954-2.62l-4.753-23.892c-.355-1.865.844-3.642 2.71-3.953l38.739-7.016a3.327 3.327 0 0 1 3.909 2.798l3.51 23.537a3.372 3.372 0 0 1-2.666 3.819z" fill="#fff"/><path d="M140.447 131.808l-.933 13.411-37.939 7.372-6.486-12.612c-.355-1.865.844-3.642 2.71-3.953l38.739-7.016a3.327 3.327 0 0 1 3.909 2.798z" fill="#E5E5E6"/><path d="M103.841 149.616l2.976-.666 1.822 8.349-3.066.577-1.732-8.26zm29.054-5.685l2.977-.666 1.821 8.349-3.11.577-1.688-8.26z" fill="#1631A4"/><path d="M162.171 80.78s1.467 3.51-.444 8.483h-1.421s2.176-5.507.533-8.482h1.332z" fill="#FFD648"/><path d="M127.875 61.463c-4.487 8.349-9.552 16.254-9.64 21.094-.134 6.662.088 22.205-.978 23.493 0 0-1.954-22.338-3.643-24.07-1.688-1.688-2.088-2.753 1.022-3.597 3.021-.755 12.573-15.899 13.239-16.92z" fill="#E5E5E6"/><path d="M218.37 204.373s-.089 4.663-6.708 8.571c-6.62 3.952-8.041 4.174-8.264 6.705l26.256-1.243 7.197-5.773s-.755-5.774-1.111-5.996c-.355-.222-14.394-1.732-14.394-1.732l-2.976-.532z" fill="#1631A4"/><path d="M230.009 99.655v109.869s-3.954.533-8.218 0c-2.444-.311-4.976-1.021-6.886-2.353 0 0-3.066-50.849-2.844-53.381.223-2.531 7.242-54.89 7.597-54.979.356-.133 10.351.844 10.351.844z" fill="#1631A4"/><path d="M230.009 169.689v39.835s-3.954.533-8.218 0c2.399-.044 3.109-1.776 3.109-1.776s-6.841-47.829-7.641-50.672c-.755-2.842 4.398-45.519 4.398-45.519l8.352 58.132z" fill="#002F7A"/><path d="M182.557 85.142h.01l.625.052c.982.081 2.139.176 3.173.249a56.75 56.75 0 0 0 1.701.1c.462.02.863.026 1.089-.003l.014-.001.014-.003c.62-.113 1.266-.544 1.529-1.14a1.29 1.29 0 0 0 .006-1.061c-.161-.358-.478-.646-.907-.867-.599-.308-.76-.744-.746-.975.007-.114.05-.17.084-.196.033-.024.125-.07.328-.027.584.125 2.202.666 3.717 1.193a250.553 250.553 0 0 1 2.604.924l.011.004.008.022c.053.156.127.38.211.653.169.546.373 1.28.521 2.04.15.766.236 1.527.185 2.137-.053.637-.237.95-.458 1.068h0l-.004.002c-.062.034-.286.122-.693.254-.387.126-.898.28-1.494.45a87.015 87.015 0 0 1-4.248 1.085c-1.537.35-3.076.653-4.307.808a11.3 11.3 0 0 1-1.544.107 2.805 2.805 0 0 1-.476-.042.541.541 0 0 1-.162-.05c-.111-.086-.275-.315-.462-.742a11.43 11.43 0 0 1-.507-1.518c-.315-1.162-.567-2.506-.744-3.545a.841.841 0 0 1 .922-.978z" fill="#fff" stroke="#000"/><path d="M197.534 82.025s15.016-4.575 15.505-5.24c.488-.667 11.861-31.532 12.128-32.02.267-.489 2.577 1.332 2.577 1.332l-6.442 37.038-22.435 6.128-1.333-7.239z" fill="#CBCBCB"/><path d="M194.958 82.557s1.466 2.265 1.51 7.195l2.399-.489s.133-6.262-1.333-7.239l-2.576.533zm36.962 128.166s-1.111 7.683-6.931 9.903c-5.82 2.221-6.619 5.063-6.619 5.063s26.522.666 26.966 0c.444-.666-5.597-16.076-5.953-16.165-.311-.089-7.463 1.199-7.463 1.199z" fill="#1631A4"/><path d="M241.604 211.611s-8.707 1.199-14.838 0c0 0-8.485-52.136-8.263-56.977.222-4.841 3.199-43.122 3.199-43.122s-1.999-1.11-1.777-4.707c.222-3.642 1.866-11.236 1.866-11.236l24.523 8.705s-2.088 17.941-6.264 18.03c0 0-7.686 30.998-7.642 32.641.045 1.687 9.196 56.666 9.196 56.666z" fill="#01008A"/><path d="M251.114 66.764v.002c-.221.933-.948 3.355-1.851 6.363a895.213 895.213 0 0 0-2.03 6.83c-.833 2.856-1.625 5.673-2.166 7.88-.27 1.102-.481 2.062-.603 2.803-.06.37-.101.696-.114.963-.012.242-.008.518.079.733.102.252.267.529.449.812.099.154.215.33.336.512l.296.448c.459.704.963 1.535 1.35 2.5.739 1.842 1.064 4.195-.264 7.077l-.945-.122a970.845 970.845 0 0 1-13.876-1.896c-3.8-.549-7.599-1.131-10.454-1.642-1.429-.255-2.612-.491-3.438-.695a8.768 8.768 0 0 1-.927-.269l-.02-.008.01-.105c.022-.215.055-.515.099-.89.088-.752.221-1.803.399-3.088h0v-.007c.233-1.856.566-4.22.943-6.89l.167-1.185h0c1.066-7.636 2.52-17.49 3.88-25.762.68-4.137 1.335-7.873 1.906-10.737a77.25 77.25 0 0 1 .784-3.571c.238-.95.434-1.556.574-1.822l.002-.003c.95-1.836 2.104-2.726 2.992-3.162a4.42 4.42 0 0 1 1.102-.38 3.012 3.012 0 0 1 .381-.051h.014s0 0 0 0h.003l-.005-.5.005.5h.012l.038-.001.145-.001.558-.003c.481-.001 1.172-.001 2.008.005 1.673.012 3.924.046 6.244.138 2.322.091 4.702.239 6.635.476.967.118 1.812.258 2.476.42.685.169 1.101.344 1.285.493.061.052.151.165.258.378.104.208.209.482.311.82.204.678.386 1.57.544 2.62.316 2.095.528 4.765.65 7.488.122 2.721.152 5.483.105 7.759-.047 2.298-.173 4.044-.347 4.77zm-34.337 32.218l.002.002-.002-.002z" fill="#fff" stroke="#000"/><path d="M243.115 37.348l-1.511 5.196-6.841 1.644-3.465-1.288-.844-.311s-.045-3.509-.045-5.418c0-1.954-2.354-2.087-2.354-2.087l6.042-4.886.31-.222 6.487-.222 2.221 7.594z" fill="#fff"/><path d="M231.609 38.326a27.73 27.73 0 0 1-.267 4.574l-.844-.311s-.044-3.508-.044-5.418c0-1.954-2.355-2.087-2.355-2.087l6.042-4.885a128.291 128.291 0 0 1 2.132 2.664s-4.709 1.377-4.664 5.463z" fill="#515BD4"/><path d="M231.253 42.189l-.711.4 1.067 1.11-.356-1.51z" fill="#E5E5E6"/><path d="M243.115 37.349l-11.862 4.84-2.088 8.483 14.794-9.415-.844-3.908z" fill="#CBCBCB"/><path d="M230.542 42.589l-.044-3.287-2.71 2.71 2.754.577z" fill="#E5E5E5"/><path d="M185.627 88.74l.012-.023.011-.028s0 0 0 0h0l.001-.003.008-.02.037-.083a4.875 4.875 0 0 1 .808-1.232c.581-.64 1.42-1.175 2.592-.97 1.117.195 2.469.594 3.755.973l.84.247c.746.216 1.449.409 2.015.515.282.053.549.088.781.09.209.002.486-.021.708-.174a.678.678 0 0 0 .28-.38.653.653 0 0 0-.059-.477c-.104-.196-.296-.343-.435-.439-.248-.172-.605-.363-.955-.55l-.236-.127c-.446-.24-.858-.478-1.139-.71a1.296 1.296 0 0 1-.234-.237c.129-.025.328-.035.606-.018.604.036 1.422.184 2.326.373.389.082.801.172 1.212.263.515.113 1.029.226 1.497.32.843.171 1.644.306 2.197.294a53.288 53.288 0 0 0 1.877-.09c.397-.023.779-.046 1.12-.06.452-.02.839-.026 1.133-.007.128.008.229.02.303.034.005.035.01.076.014.125.02.227.027.548.023.94a56.58 56.58 0 0 1-.127 2.81 150.39 150.39 0 0 1-.293 3.703l-.091.036a269.292 269.292 0 0 1-4.099 1.606c-1.156.44-2.345.88-3.317 1.213a26.69 26.69 0 0 1-1.255.4c-.358.103-.569.144-.649.147-.078.003-.298-.024-.682-.107a26.87 26.87 0 0 1-1.351-.336 86.157 86.157 0 0 1-3.626-1.087 77.645 77.645 0 0 1-3.442-1.186c-.467-.176-.848-.33-1.116-.454a3.56 3.56 0 0 1-.272-.136 6.433 6.433 0 0 1-.052-.178c-.043-.16-.095-.37-.15-.616a34.294 34.294 0 0 1-.343-1.75 21.305 21.305 0 0 1-.234-1.774 5.409 5.409 0 0 1-.019-.63c.006-.154.024-.21.022-.21l-.002.003zm8.747-3.71l.001.004-.001-.004zm-.061.111a.062.062 0 0 1 0 0z" fill="#fff" stroke="#000"/><path d="M238.361 91.173c-2.487-.578-15.593 2.353-21.413 3.73.267-2.132.667-4.93 1.111-8.083l24.567-24.78 7.952-2.753s-7.952 22.782-10.617 24.736c-2.621 1.954-1.555 3.952 0 4.174 1.51.267 1.643 3.73-1.6 2.976z" fill="#E5E5E5"/><path d="M211.153 93.095l.158-8.154.315-.126a884.843 884.843 0 0 0 6.65-2.69 337.097 337.097 0 0 0 5.053-2.105c.695-.3 1.285-.56 1.71-.76.212-.1.389-.187.52-.258.065-.035.127-.071.179-.106a.798.798 0 0 0 .088-.066.575.575 0 0 0 .133-.16c.025-.045.053-.114.072-.16h.001l.098-.248a724.745 724.745 0 0 0 1.439-3.784l.686-1.817c.796-2.11 1.734-4.595 2.699-7.14 2.527-6.66 5.227-13.682 6.082-15.479.791-1.663 2.493-2.914 4.405-3.602 1.917-.691 3.927-.773 5.263-.234.613.246 1.245.826 1.827 1.704.577.869 1.076 1.989 1.439 3.245.73 2.517.895 5.502.131 7.984-.381 1.226-1.567 3.526-3.181 6.342-1.604 2.798-3.602 6.057-5.572 9.176a434.576 434.576 0 0 1-5.392 8.328 196.086 196.086 0 0 1-1.832 2.711c-.231.334-.419.6-.557.79a9.217 9.217 0 0 1-.166.222l-.036.045a15.9 15.9 0 0 1-1.035.393c-.674.227-1.6.513-2.697.84a445.182 445.182 0 0 1-7.881 2.238 1174.932 1174.932 0 0 1-10.281 2.786l-.318.085zm22.201-6.328l.002-.002-.002.002z" fill="#fff" stroke="#000"/><path d="M206.375 85.71s.489 3.997-.578 8.838l5.065-.888s2.044-5.862-.044-9.06l-4.443 1.11z" fill="#1631A4"/><path d="M182.163 64.394a4.618 4.618 0 0 0-.133-.533c.044.178.089.31.133.533z" fill="#F9A826"/><path d="M224.101 17.053s-.178 14.433 0 16.343c.177 1.91 1.466 2.22 1.688 2.265.266.044 15.593-4.22 15.593-4.22l4.576-7.815-6.575-9.948-11.284-2.887c.044 0-3.998 3.686-3.998 6.262z" fill="#fff"/><path d="M225.123 15.01s1.865-1.465 2.665 0c.8 1.466 1.288 5.152 5.598 5.241 4.309.089 4.265 3.686 4.265 3.686s-2.888-14.655-3.199-14.877c-.267-.222-9.552-1.377-9.552-1.377l.223 7.328z" fill="#CBCBCB"/><path d="M237.606 23.937s1.733-2.665 3.465-1.51c1.733 1.154-.488 6.44-3.909 7.283 0 0 1.155 5.773 1.377 5.684.222-.088 5.775-1.776 5.775-1.776s7.642-8.482 6.042-15.632c-1.599-7.15-17.992-15.233-21.679-14.7-3.688.533-4.354 4.663-4.354 4.663s-3.199-.089-3.732 1.466c-.533 1.599-2.443 10.08 3.51 11.768 0 0-.089-5.196 1.022-6.261 0 0 .888-2.043 2.043-1.555 1.155.489 1.2 6.662 6.22 6.795 5.02.222 4.22 3.775 4.22 3.775z" fill="#231F20"/><path d="M240.716 23.937s-1.91-1.332-2.71 2.798c-.045 0 1.022-2.843 2.71-2.798z" fill="#515BD4"/></g><defs><clipPath id="clip0_20_679"><path fill="#fff" transform="translate(95)" d="M0 0h157v226H0z"/></clipPath></defs></svg>