<svg width="341" height="261" fill="none" xmlns="http://www.w3.org/2000/svg"><g style="mix-blend-mode:luminosity"><path opacity=".4" d="M234.38 65.647l-3.529 4.466-19.324 24.4-3.529-11.053-92.375 24.179a20.16 20.16 0 0 1-15.4-2.196l-.543-.321a18.538 18.538 0 0 0-19.028-.024l-33.44 19.91-4.788-13.348-2.443-6.809 46.298-19.689c6.293-2.689 13.5-2.146 19.349 1.407a20 20 0 0 0 13.919 4.342 18.131 18.131 0 0 0 3.406-.543l78.678-19.343-5.06-11.349 37.809 5.97z" fill="#6457A4"/><path opacity=".4" d="M309.917 4.307l-2.946 30.985-8.973-7.356-64.371 70.527a20.163 20.163 0 0 1-14.118 6.533l-.63.026a18.539 18.539 0 0 0-15.981 10.327l-17.235 34.895-11.277-8.598 27.713-42.096c3.827-5.803 10.225-9.272 17.235-9.347 5.187.608 10.284-.784 14.301-3.799.933-.693 1.778-1.476 2.583-2.32l55.767-60.072-10.809-7.195 28.741-12.51z" fill="#fff"/><path opacity=".5" d="M150.223 244.494s1.111-5.181-4.664-5.699c0 0-1.012 4.318 4.664 5.699z" fill="#6457A4"/><path d="M150.47 246.419s4.393.938 4.813-3.972c0-.025-3.678-.864-4.813 3.972z" fill="#6457A4"/><path d="M150.149 243.804s1.234 6.39.272 9.572" stroke="#6457A4" stroke-miterlimit="10" stroke-linecap="round" stroke-linejoin="round"/><path d="M206.443 236.278s-5.207-.987-3.43-6.538c0 0 4.368.765 3.43 6.538z" fill="#6457A4"/><path opacity=".5" d="M207.06 230.012c.198-.222-.37-1.505-.469-1.777-.888-2.812-.074-6.612 2.443-8.388.099 1.159.173 2.27.445 3.404.444 1.777.246 2.764-.741 4.244-.543.888-.962 1.727-1.678 2.517zm-.691 11.572s-1.111-5.182 4.664-5.7c0 0 1.037 4.318-4.664 5.7z" fill="#6457A4"/><path d="M206.32 246.369s-4.393.938-4.813-3.972c-.025-.025 3.653-.863 4.813 3.972z" fill="#6457A4"/><path d="M208.368 221.623s-2.937 13.224-1.974 31.704" stroke="#6457A4" stroke-miterlimit="10" stroke-linecap="round" stroke-linejoin="round"/><path d="M263.699 202.995s2.197-4.835-3.356-6.562c0 0-1.901 3.997 3.356 6.562z" fill="#6457A4"/><path opacity=".5" d="M264.933 212.988c-.049-.222.864-.863 1.012-1.011 1.703-1.53 2.69-4.416 1.703-6.612-.543.74-1.012 1.455-1.678 2.122-1.012 1.011-1.284 1.751-1.21 3.158.074.789 0 1.529.173 2.343zm1.136 27.559s1.11-5.181-4.665-5.699c0 0-1.012 4.318 4.665 5.699z" fill="#6457A4"/><path d="M265.896 222.289s-.124-5.304-5.874-4.441c-.025.025.025 4.466 5.874 4.441zm.32 9.968s5.208-1.012 3.406-6.538c.025 0-4.343.765-3.406 6.538zm-.074 12.805s4.393.938 4.813-3.972c0 0-3.677-.839-4.813 3.972z" fill="#6457A4"/><path d="M263.304 201.664s4.788 21.267 2.32 51.663" stroke="#6457A4" stroke-miterlimit="10" stroke-linecap="round" stroke-linejoin="round"/><path d="M331.864 202.995s-2.197-4.835 3.356-6.562c-.025 0 1.9 3.997-3.356 6.562z" fill="#6457A4"/><path opacity=".5" d="M330.63 212.988c.049-.222-.864-.863-1.012-1.011-1.703-1.53-2.69-4.416-1.703-6.612.543.74 1.012 1.455 1.678 2.122 1.012 1.011 2.493 1.751 2.419 3.158-.074.789-1.234 1.529-1.382 2.343zm3.011-20.946c.049-.222-.864-.863-1.012-1.011-1.703-1.53-2.69-4.417-1.703-6.613.543.741 1.012 1.456 1.678 2.122 1.012 1.012 1.283 1.752 1.209 3.158-.074.814 0 1.555-.172 2.344zm-4.147 48.505s-1.11-5.181 4.665-5.699c0 0 1.012 4.318-4.665 5.699z" fill="#6457A4"/><path d="M329.865 222.289s.123-5.304 5.873-4.441c0 .025.519 4.466-5.873 4.441zm4.837-39.499s-1.358-5.132 4.393-5.921c0 .024 1.727 4.12-4.393 5.921zm-5.38 49.467s-5.208-1.012-3.406-6.538c0 0 4.368.765 3.406 6.538zm.098 12.805s-4.392.938-4.812-3.972c-.025 0 3.653-.839 4.812 3.972z" fill="#6457A4"/><path opacity=".5" d="M336.528 170.256s-2.073-4.712 3.332-6.316c0 0 1.801 3.898-3.332 6.316z" fill="#6457A4"/><path d="M336.948 169.097s-9.502 53.859-7.034 84.23" stroke="#6457A4" stroke-miterlimit="10" stroke-linecap="round" stroke-linejoin="round"/><path opacity=".2" d="M137.217 210.595h-31.491v42.782h31.491v-42.782z" fill="#6457A4"/><path opacity=".5" d="M113.303 205.463l-7.577 5.132h31.467l7.576-5.132h-31.466z" fill="#6457A4"/><path d="M137.193 253.376l7.576-5.132v-42.781l-7.576 5.132v42.781z" fill="#4E4688"/><path opacity=".2" d="M189.488 191.154h-31.491v62.223h31.491v-62.223z" fill="#6457A4"/><path opacity=".5" d="M165.574 186.318l-7.577 4.836h31.467l7.576-4.836h-31.466z" fill="#6457A4"/><path d="M189.464 253.377l7.576-6.909v-60.15l-7.576 4.836v62.223z" fill="#4E4688"/><path opacity=".2" d="M249.533 161.917h-31.491v91.336h31.491v-91.336z" fill="#6457A4"/><path opacity=".5" d="M225.619 157.057l-7.577 4.86h31.491l7.577-4.86h-31.491z" fill="#6457A4"/><path d="M249.533 253.376l7.577-6.908v-89.411l-7.577 4.86v91.459z" fill="#4E4688"/><path opacity=".2" d="M308.838 126.438h-31.491v126.938h31.491V126.438z" fill="#6457A4"/><path d="M284.924 121.603l-7.577 4.836h31.466l7.577-4.836h-31.466z" fill="#4E4688"/><path d="M308.813 253.377l7.577-6.909V121.603l-7.577 4.836v126.938z" fill="#4E4688"/><path d="M292.747 199.517a8.956 8.956 0 1 0 0-17.912c-4.948 0-8.959 4.01-8.959 8.956 0 4.947 4.011 8.956 8.959 8.956z" fill="#FCB713"/><path d="M292.327 195.816a5.599 5.599 0 0 1-1.036-.172 4.835 4.835 0 0 1-.79-.321c-.222-.123-.42-.222-.543-.345a3.68 3.68 0 0 0-.321-.247c-.074-.074-.123-.124-.123-.173-.025-.049 0-.148.074-.247l.543-.863c.049-.099.123-.148.222-.148s.197.049.345.173c.223.172.469.345.766.493.296.148.592.247.888.296v-2.763c-.321-.124-.666-.296-.987-.444a4.549 4.549 0 0 1-.913-.617 3.237 3.237 0 0 1-.667-.864c-.172-.345-.246-.74-.246-1.209 0-.345.049-.666.172-.962.099-.296.272-.592.519-.814.222-.247.518-.444.888-.592.346-.173.765-.271 1.259-.296v-.444a.28.28 0 0 1 .074-.198.28.28 0 0 1 .197-.074h.173a.28.28 0 0 1 .197.074.28.28 0 0 1 .074.198v.469c.321.024.617.074.889.172.271.074.518.173.74.272.222.098.395.197.543.296.148.098.247.148.321.197a.258.258 0 0 1 .123.222.287.287 0 0 1-.049.247l-.568.814c-.123.173-.246.197-.394.123a14.933 14.933 0 0 0-.716-.419 3.356 3.356 0 0 0-.913-.345v2.59c.321.123.641.296.987.469.345.173.666.395.962.641.297.247.519.568.716.913.198.346.296.74.296 1.209 0 .765-.247 1.431-.765 1.949s-1.234.814-2.196.864v1.48c0 .074-.025.148-.074.173a.284.284 0 0 1-.198.074c-.074 0-.173 0-.296-.025-.099-.025-.148-.099-.148-.222v-1.604h-.025zm0-8.635c-.37.05-.641.173-.814.346a1.01 1.01 0 0 0-.272.69c0 .296.099.519.272.716.173.173.444.37.814.567v-2.319zm.716 7.081c.321-.049.592-.148.79-.321.197-.172.296-.419.296-.74 0-.271-.074-.543-.247-.789-.173-.247-.444-.469-.839-.667v2.517z" fill="#F6F7F7"/><path opacity=".9" d="M242.475 189.821c0 5.28-2.863 9.548-6.392 9.548-.123 0-.247 0-.395-.025h-2.813c.543 0 1.061-.098 1.579-.296a5.381 5.381 0 0 0 1.975-1.332c1.702-1.702 2.813-4.614 2.813-7.92s-1.111-6.193-2.813-7.92a6.077 6.077 0 0 0-1.975-1.332 4.41 4.41 0 0 0-1.604-.296h3.184c.123 0 .246 0 .37.025 3.406.296 6.071 4.465 6.071 9.548z" fill="#F37C20"/><path d="M239.291 189.822c0 3.306-1.11 6.192-2.813 7.919-.592.592-1.259 1.061-1.974 1.333a4.288 4.288 0 0 1-1.58.296h-.296c-3.381-.222-6.096-4.417-6.096-9.524 0-5.107 2.69-9.301 6.096-9.523h.296c.543 0 1.086.098 1.604.296a5.381 5.381 0 0 1 1.975 1.332c1.653 1.653 2.788 4.564 2.788 7.871z" fill="#FCB713"/><path d="M232.603 195.397a2.312 2.312 0 0 1-.74-.197c-.222-.099-.395-.222-.568-.321a1.413 1.413 0 0 1-.395-.37c-.098-.123-.172-.222-.222-.271-.049-.074-.074-.148-.098-.198-.025-.049 0-.148.049-.246l.395-.913c.049-.099.098-.148.148-.148.074 0 .148.049.247.197.148.198.345.37.543.518.197.148.419.247.641.296v-2.96a6.04 6.04 0 0 1-.715-.494c-.247-.172-.445-.394-.642-.666-.198-.247-.346-.567-.469-.913-.123-.345-.173-.789-.173-1.283 0-.37.05-.715.124-1.036a2.81 2.81 0 0 1 .37-.888c.173-.247.37-.469.617-.642.247-.172.543-.271.888-.32v-.494c0-.074.025-.148.05-.197.049-.049.074-.074.148-.074h.123c.049 0 .099.025.148.074a.457.457 0 0 1 .049.197v.494c.223.024.445.098.642.172.198.074.37.173.543.296.148.099.296.198.395.297l.222.222c.049.049.074.123.099.222 0 .098 0 .197-.025.271l-.395.888c-.098.173-.173.222-.271.124a4.899 4.899 0 0 0-.519-.445c-.197-.172-.419-.271-.641-.37v2.764c.222.148.469.296.716.493.246.197.468.42.666.691.197.271.37.592.518.962.148.37.198.79.198 1.283 0 .839-.173 1.505-.543 2.073-.371.542-.889.863-1.555.912v1.579a.465.465 0 0 1-.05.198c-.049.049-.098.074-.148.074a.755.755 0 0 1-.197-.05c-.074-.024-.123-.098-.123-.222v-1.579h-.05zm0-9.178a.836.836 0 0 0-.567.37 1.374 1.374 0 0 0-.198.741c0 .296.074.542.198.74.123.197.32.395.567.592v-2.443zm.518 7.55c.223-.049.42-.148.568-.321.148-.172.222-.444.222-.789 0-.296-.049-.568-.173-.839-.123-.271-.32-.493-.592-.716v2.665h-.025z" fill="#F6F7F7"/><path opacity=".9" d="M300.348 229.001c0 5.279-2.863 9.548-6.392 9.548-.123 0-.247 0-.395-.025h-2.813c.543 0 1.061-.099 1.579-.296a5.406 5.406 0 0 0 1.975-1.332c1.703-1.703 2.813-4.614 2.813-7.92s-1.11-6.193-2.813-7.92a6.077 6.077 0 0 0-1.975-1.332 4.39 4.39 0 0 0-1.604-.296h3.184c.123 0 .247 0 .37.024 3.406.296 6.071 4.466 6.071 9.549z" fill="#F37C20"/><path d="M297.164 229.001c0 3.306-1.11 6.193-2.813 7.92-.592.592-1.259 1.061-1.974 1.332a4.268 4.268 0 0 1-1.58.296h-.296c-3.381-.222-6.096-4.416-6.096-9.523 0-5.107 2.69-9.302 6.096-9.524h.296a4.49 4.49 0 0 1 1.604.297 5.381 5.381 0 0 1 1.975 1.332c1.678 1.653 2.788 4.564 2.788 7.87z" fill="#FCB713"/><path d="M290.476 234.577a2.365 2.365 0 0 1-.74-.197c-.222-.099-.395-.222-.568-.321a1.921 1.921 0 0 1-.394-.37c-.099-.123-.173-.222-.223-.271-.049-.075-.074-.149-.098-.198-.025-.049 0-.148.049-.247l.395-.912c.049-.099.099-.148.148-.148.074 0 .148.049.247.197.148.197.345.37.543.518.197.148.419.247.641.296v-2.961a6.325 6.325 0 0 1-.715-.493c-.247-.173-.444-.395-.642-.666-.197-.247-.345-.568-.469-.913-.123-.345-.173-.79-.173-1.283 0-.37.05-.715.124-1.036a2.81 2.81 0 0 1 .37-.888c.173-.247.37-.469.617-.642.247-.173.543-.271.888-.321v-.493c0-.074.025-.148.05-.197.049-.05.074-.074.148-.074h.123c.05 0 .099.024.148.074.025.049.05.123.05.197v.493c.222.025.444.099.641.173.198.074.371.173.543.296.173.124.296.198.395.296l.222.222c.05.05.074.124.099.222 0 .099 0 .198-.025.272l-.395.888c-.098.173-.172.222-.271.123a4.863 4.863 0 0 0-.518-.444c-.198-.173-.42-.271-.642-.37v2.763c.222.148.469.296.716.494.247.197.469.419.666.691.198.271.37.592.518.962.148.37.198.789.198 1.283 0 .839-.173 1.505-.543 2.072-.37.543-.889.864-1.555.913v1.579a.472.472 0 0 1-.049.197c-.05.05-.099.075-.148.075-.05 0-.124-.025-.198-.05-.074-.025-.123-.099-.123-.222v-1.579h-.05zm0-9.178a.835.835 0 0 0-.567.37 1.37 1.37 0 0 0-.198.74c0 .296.074.543.198.74.123.198.321.395.567.593v-2.443zm.519 7.525c.222-.049.419-.148.567-.321.148-.172.222-.444.222-.789 0-.296-.049-.568-.172-.839-.124-.271-.321-.493-.593-.716v2.665h-.024z" fill="#F6F7F7"/><path opacity=".9" d="M179.691 221.624c0 5.625-1.531 10.189-3.406 10.189h-3.159c.568 0 1.135-.395 1.604-1.11.666-.962 1.209-2.492 1.555-4.367.247-1.406.395-3.01.395-4.712 0-1.703-.148-3.306-.395-4.713-.346-1.875-.889-3.404-1.555-4.367-.469-.69-1.036-1.11-1.604-1.11h3.159c1.875 0 3.406 4.564 3.406 10.19z" fill="#F37C20"/><path d="M176.68 221.624c0 1.702-.148 3.306-.395 4.712-.346 1.875-.889 3.405-1.555 4.367-.469.691-1.036 1.11-1.604 1.11h-.025c-1.974 0-3.578-4.564-3.578-10.189 0-5.626 1.604-10.19 3.578-10.19h.025c.568 0 1.135.395 1.604 1.11.666.963 1.209 2.492 1.555 4.367.247 1.407.395 3.01.395 4.713z" fill="#FCB713"/><path d="M172.928 227.595a.78.78 0 0 1-.419-.222 2.153 2.153 0 0 1-.321-.346 1.231 1.231 0 0 1-.222-.394c-.049-.124-.099-.222-.123-.296-.025-.074-.05-.148-.05-.222 0-.074 0-.148.025-.272l.222-.962c.025-.099.049-.173.099-.173.024 0 .074.074.148.198.099.197.197.394.296.542.123.173.222.272.345.321v-3.158c-.123-.148-.271-.321-.394-.518a5.763 5.763 0 0 1-.371-.691 6.206 6.206 0 0 1-.271-.987c-.074-.37-.099-.839-.099-1.381 0-.395.025-.765.074-1.111.05-.345.124-.666.198-.937.098-.271.197-.494.345-.691.148-.173.321-.296.494-.345v-.518c0-.074 0-.148.024-.222.025-.05.05-.099.075-.099h.074c.024 0 .049.025.074.099.024.049.024.123.024.222v.542a.705.705 0 0 1 .346.198c.123.098.222.197.296.296.099.123.148.222.222.321.049.098.099.172.123.222.025.049.05.123.05.246 0 .099 0 .198-.025.296l-.222.938c-.049.197-.099.247-.148.123-.074-.148-.173-.32-.272-.493a1.137 1.137 0 0 0-.37-.395v2.961c.124.148.247.32.395.518.148.197.272.444.37.74.124.296.222.641.297 1.036.074.395.123.864.123 1.382 0 .888-.099 1.628-.296 2.196-.198.592-.494.913-.864.987v1.677c0 .074 0 .148-.025.222-.024.05-.049.074-.074.074a.407.407 0 0 1-.123-.049c-.05-.025-.074-.099-.074-.247v-1.628h.024zm0-9.795c-.148.049-.246.197-.32.395-.074.222-.099.469-.099.789 0 .321.025.592.099.79.074.222.172.419.32.641V217.8zm.297 8.043c.123-.049.222-.173.32-.345.075-.198.124-.469.124-.839 0-.321-.025-.617-.099-.888-.074-.272-.173-.543-.345-.765v2.837z" fill="#F6F7F7"/><path opacity=".9" d="M238.255 228.334c0 5.625-1.53 10.19-3.406 10.19h-3.159c.568 0 1.135-.395 1.604-1.111.666-.962 1.209-2.491 1.555-4.367.247-1.406.395-3.01.395-4.712s-.148-3.306-.395-4.712c-.346-1.875-.889-3.405-1.555-4.367-.469-.691-1.036-1.11-1.604-1.11h3.159c1.9 0 3.406 4.564 3.406 10.189z" fill="#F37C20"/><path d="M235.269 228.334c0 1.702-.148 3.306-.395 4.712-.346 1.876-.889 3.405-1.555 4.367-.469.691-1.037 1.111-1.604 1.111h-.025c-1.974 0-3.578-4.565-3.578-10.19 0-5.625 1.604-10.189 3.578-10.189h.025c.567 0 1.135.394 1.604 1.11.666.962 1.209 2.492 1.555 4.367.247 1.406.395 3.01.395 4.712z" fill="#FCB713"/><path d="M231.517 234.305a.78.78 0 0 1-.419-.222c-.124-.099-.222-.222-.321-.346a1.231 1.231 0 0 1-.222-.394c-.05-.124-.099-.222-.124-.296-.024-.074-.049-.148-.049-.222 0-.074 0-.148.025-.272l.222-.962c.025-.099.049-.173.099-.173.024 0 .074.074.148.198.098.197.197.394.296.542.123.173.222.272.345.321v-3.158c-.123-.148-.271-.321-.395-.518a5.915 5.915 0 0 1-.37-.691 6.206 6.206 0 0 1-.271-.987c-.074-.37-.099-.839-.099-1.381 0-.395.025-.765.074-1.111.049-.345.123-.666.198-.937.098-.272.197-.494.345-.691.148-.173.321-.296.494-.345v-.518c0-.074 0-.149.024-.223.025-.049.05-.098.074-.098h.074c.025 0 .05.024.074.098.025.05.025.124.025.223v.542a.71.71 0 0 1 .346.198c.123.098.222.197.296.296.098.123.148.222.222.321.049.098.099.172.123.222.025.049.05.123.05.246 0 .099 0 .198-.025.296l-.222.938c-.05.197-.099.247-.148.123-.074-.148-.173-.32-.272-.493a1.137 1.137 0 0 0-.37-.395v2.961c.123.148.247.32.395.518.148.197.271.444.37.74.124.296.222.641.296 1.036.074.395.124.864.124 1.382 0 .888-.099 1.628-.296 2.196-.198.592-.494.913-.864.987v1.677c0 .074 0 .148-.025.222-.025.05-.049.074-.074.074a.397.397 0 0 1-.123-.049c-.05-.025-.074-.099-.074-.247v-1.628h.024zm0-9.82c-.148.05-.246.198-.321.395-.074.222-.098.469-.098.79 0 .32.024.592.098.789.075.222.173.42.321.642v-2.616zm.296 8.043c.124-.049.223-.172.321-.345.074-.197.124-.469.124-.839 0-.321-.025-.617-.099-.888-.074-.271-.173-.543-.346-.765v2.837z" fill="#F6F7F7"/><path opacity=".9" d="M299.558 152.936c0 5.625-1.53 10.189-3.405 10.189h-3.159c.567 0 1.135-.395 1.604-1.11.666-.962 1.209-2.492 1.555-4.367a27.62 27.62 0 0 0 .394-4.712c0-1.703-.148-3.306-.394-4.713-.346-1.875-.889-3.404-1.555-4.367-.469-.69-1.037-1.11-1.604-1.11h3.159c1.875 0 3.405 4.564 3.405 10.19z" fill="#F37C20"/><path d="M296.547 152.936c0 1.703-.148 3.306-.394 4.713-.346 1.875-.889 3.404-1.555 4.366-.469.691-1.037 1.111-1.604 1.111h-.025c-1.974 0-3.579-4.565-3.579-10.19 0-5.625 1.605-10.189 3.579-10.189h.025c.567 0 1.135.394 1.604 1.11.666.962 1.209 2.492 1.555 4.367a27.62 27.62 0 0 1 .394 4.712z" fill="#FCB713"/><path d="M292.821 158.906a.773.773 0 0 1-.42-.222 2.096 2.096 0 0 1-.32-.345 1.258 1.258 0 0 1-.223-.395c-.049-.123-.098-.222-.123-.296a.71.71 0 0 1-.049-.222c0-.074 0-.148.024-.271l.223-.962c.024-.099.049-.173.098-.173.025 0 .074.074.148.197.099.198.198.395.296.543.124.173.223.271.346.321v-3.158c-.123-.148-.272-.321-.395-.518a5.927 5.927 0 0 1-.37-.691 6.123 6.123 0 0 1-.272-.987c-.074-.37-.098-.839-.098-1.382 0-.395.024-.765.074-1.11.049-.345.123-.666.197-.938.099-.271.198-.493.346-.69.148-.173.321-.296.493-.346v-.518c0-.074 0-.148.025-.222.025-.049.049-.099.074-.099h.074c.025 0 .049.025.074.099.025.049.025.123.025.222v.543a.712.712 0 0 1 .345.197c.124.099.222.198.296.296.099.124.148.222.222.321.05.099.099.173.124.222a.526.526 0 0 1 .049.247c0 .099 0 .197-.024.296l-.223.937c-.049.198-.098.247-.148.124a10.676 10.676 0 0 0-.271-.494 1.143 1.143 0 0 0-.37-.394v2.96c.123.148.246.321.395.518.148.198.271.444.37.741.123.296.222.641.296 1.036.074.395.123.863.123 1.381 0 .889-.098 1.629-.296 2.196-.197.592-.493.913-.864.987v1.678c0 .074 0 .148-.024.222-.025.049-.05.074-.074.074-.025 0-.074-.025-.124-.049-.049-.025-.074-.099-.074-.247v-1.629h.025zm0-9.794c-.148.049-.247.197-.321.394-.074.222-.099.469-.099.79 0 .321.025.592.099.789.074.222.173.42.321.642v-2.615zm.271 8.043c.124-.05.222-.173.321-.346.074-.197.124-.468.124-.839 0-.32-.025-.616-.099-.888-.074-.271-.173-.543-.346-.765v2.838z" fill="#F6F7F7"/><path d="M121.472 240.03c4.948 0 8.959-4.01 8.959-8.956 0-4.947-4.011-8.956-8.959-8.956-4.948 0-8.959 4.009-8.959 8.956 0 4.946 4.011 8.956 8.959 8.956z" fill="#FCB713"/><path d="M121.052 236.33a5.678 5.678 0 0 1-1.036-.173 4.748 4.748 0 0 1-.79-.321c-.222-.123-.42-.222-.543-.345a3.68 3.68 0 0 0-.321-.247c-.074-.074-.123-.123-.123-.173-.025-.049 0-.148.074-.246l.543-.864c.049-.099.123-.148.222-.148s.197.049.345.173c.223.172.469.345.766.493.296.148.592.247.888.296v-2.763c-.321-.123-.666-.296-.987-.444a4.549 4.549 0 0 1-.913-.617 3.248 3.248 0 0 1-.667-.863c-.172-.346-.246-.741-.246-1.209 0-.346.049-.667.172-.963.099-.296.272-.592.519-.814.222-.247.518-.444.888-.592.346-.173.765-.271 1.259-.296v-.444c0-.074.024-.148.074-.197a.276.276 0 0 1 .197-.074h.173c.074 0 .148.024.197.074.05.049.074.123.074.197v.469c.321.024.617.074.889.172.271.074.518.173.74.272.222.098.395.197.543.296.148.099.247.148.321.197a.26.26 0 0 1 .123.222.287.287 0 0 1-.049.247l-.568.814c-.123.173-.246.198-.394.124a14.086 14.086 0 0 0-.716-.42 3.356 3.356 0 0 0-.913-.345v2.59c.321.124.641.296.987.469.345.173.666.395.962.642.297.246.519.567.716.912.198.346.296.741.296 1.209 0 .765-.247 1.431-.765 1.949-.518.519-1.234.815-2.196.864v1.48c0 .074-.025.148-.074.173a.284.284 0 0 1-.198.074c-.074 0-.173 0-.296-.025-.099-.024-.148-.098-.148-.222v-1.603h-.025zm0-8.636c-.37.05-.641.173-.814.346a1.01 1.01 0 0 0-.272.691c0 .296.099.518.272.715.173.173.444.37.814.568v-2.32zm.716 7.081c.321-.049.592-.148.79-.32.197-.173.296-.42.296-.741 0-.271-.074-.542-.247-.789s-.444-.469-.839-.666v2.516z" fill="#F6F7F7"/><path d="M155.061 98.016a3.98 3.98 0 0 1-.963 1.406 4.365 4.365 0 0 1-1.431.938l-6.269 2.467c-.296.124-.247.568.074.617l2.32.37c.691.099.987.913.543 1.456a.4.4 0 0 1-.321.148h-.025l-6.367-.395-1.16-.074a7.783 7.783 0 0 0-2.912.395l-2.715.913.519-5.379.074-.74 10.562-3.134a6.02 6.02 0 0 1 1.753-.246l5.528.074c.617-.025 1.012.617.79 1.184z" fill="#F28389"/><path d="M142.622 104.999l-1.16-.074a7.782 7.782 0 0 0-2.912.394l-1.11.37a4.574 4.574 0 0 0 .765-2.491v-2.788c.592.616.888 2.072 1.628 2.467.445.247.988.271 1.407.518.272.173.494.419.691.666a4.8 4.8 0 0 1 .691.938z" fill="#F16B6C"/><path d="M124.187 187.946l-2.814 9.351-1.431 4.737-.173.642-1.9-.42-.469-.123-2.986-.666.098-1.703.494-7.944.173-2.862 9.008-1.012z" fill="#F28389"/><path d="M123.101 198.333c-.889.963-1.284 2.32-2.271 3.183a4.065 4.065 0 0 1-.888.543c-.642.271-1.382.321-2.073.197-.173-.024-.321-.074-.494-.098a4.941 4.941 0 0 1-.642-.247c-.937-.444-1.678-1.234-2.221-2.122l.494-7.944c.247.049.494.148.74.345 1.136.888 1.95 2.221 3.061 3.158.197.173 1.456 1.16 2.542 1.974.888.617 1.653 1.11 1.752 1.011z" fill="#F16B6C"/><path d="M36.994 235.958l-9.452 6.834-2.64 1.9-4.69-2.122 1.062-1.234 3.48-3.972 7.428-8.487 4.491 6.612.321.469z" fill="#F28389"/><path d="M49.828 179.188L38.919 203.81l-19.027-8.413-8.762-3.873-2.048-.913-8.959-3.972-.123-.05.84-1.875.888-2.048 2.295-5.156 1.357-3.059 5.528-12.509 13.648 6.069 5.06 2.245 4.59 2.023.617.272 3.948 1.752 3.9 1.727 6.392 2.812.197.099.568.247z" fill="#E96924"/><path d="M36.97 235.983l-9.453 6.81c-.79.173-1.554.345-2.344.518-1.21.271-2.715.444-3.455-.567-.296-.395-.395-.913-.444-1.407l3.48-3.972c3.48.345 7.156.148 10.266-1.135.099-.049.173-.074.271-.123l.988.345.69-.469z" fill="#F16B6C"/><path d="M25.74 161.054l4.542 2.023-.642 1.036-3.85-1.702-2.27 5.132-1.111-.494 2.517-5.699c.148-.296.519-.42.815-.296zm14.882 7.253l-2.517 5.699-1.11-.493 2.27-5.132-2-.888-1.554-.691.272-1.11v-.099l1.702.74 2.641 1.185a.586.586 0 0 1 .296.789z" fill="#A04323"/><path d="M35.983 165.692l-.272 1.11-1.135-.518-.025-.024c.173-.37.346-.741.494-1.111l.444.198.494.222v.123z" fill="#A04323"/><path opacity=".5" d="M10.859 162.041l4.886 14.26a3.28 3.28 0 0 0 1.728 1.9l15.671 6.933c.815.37 1.753.37 2.567.024l13.969-6.02" fill="#FCB713"/><path d="M19.694 181.729l-.395-.173a1.011 1.011 0 0 1-.518-1.357l.74-1.677c.223-.518.84-.765 1.358-.518l.395.172c.518.222.765.839.518 1.357l-.74 1.678c-.223.493-.84.74-1.358.518zm9.872 4.367l-.395-.172c-.518-.223-.765-.839-.518-1.357l.74-1.678c.222-.518.84-.765 1.357-.518l.395.172c.519.222.765.839.519 1.357l-.74 1.678c-.223.518-.84.74-1.358.518z" fill="#A04323"/><path opacity=".15" d="M34.823 172.551L1.728 182.666l2.295-5.156 24.63-7.204.962-.05 4.59 2.023.618.272z" fill="#F6F7F7"/><path d="M10.291 161.67L.42 183.999a3.842 3.842 0 0 0-.173 2.615c0 .025.024.074.024.099a3.688 3.688 0 0 0 2.074 2.269l33.563 14.878c2.049.913 4.418-.025 5.331-2.073l9.773-22.081-40.72-18.036zm30.257 38.464a4.054 4.054 0 0 1-5.33 2.073L11.13 191.548h-.024l-2.049-.913-5.602-2.516a3.758 3.758 0 0 1-1.925-1.925 3.772 3.772 0 0 1 0-3.059l9.378-21.169 38.155 16.876.197.099.568.247-9.28 20.946z" fill="#A04323"/><path opacity=".15" d="M49.26 178.941l-36.254 13.2-1.876-.642h-.024l-2.049-.913-5.602-2.467a3.756 3.756 0 0 1-1.925-1.924l37.241-11.892 3.9 1.727 6.367 2.812.222.099z" fill="#F6F7F7"/><path d="M134.404 155.7l-10.513 34.936a2.543 2.543 0 0 1-2.172 1.801l-2.986.666-4.739 1.11 2.024-28.694-24.408 8.093c-2.517 1.061-4.442 3.158-5.356 5.724l-8.267 21.39-1.95 5.058a15.055 15.055 0 0 1-5.06 6.612c-.098.074-.221.148-.32.222l-33.638 23.34-.025.025-.69.469-.988-.346-3.134-1.135-4.27-1.554 26.975-28.546c.716-.715 1.357-1.48 1.876-2.319.049-.074.098-.173.148-.247a12.95 12.95 0 0 0 1.505-3.626l3.332-13.693.913-3.751 3.973-16.234.222-.913 32.306-10.929 2.665-.913 3.825-1.456.074-.025 18.485-7.056a7.447 7.447 0 0 1 2.715-.493 7.701 7.701 0 0 1 6.664 3.873 10.707 10.707 0 0 1 .814 8.611z" fill="#4E4688"/><path opacity=".2" d="M105.727 150.741s-1.259 11.374-17.646 18.332c-6.935 2.936-12.068 6.242-16.091 9.104l-15.08 24.104a12.97 12.97 0 0 0 1.506-3.627l3.332-13.693.913-3.75 3.973-16.234 32.528-11.843 6.49-2.368.075-.025z" fill="#000"/><path d="M96.126 122.689l.691 37.822s-5.997 4.293-7.255 4.145l-.74.296-.544.222s-4.664 2.492-4.911 2.591l-2.172-17.715-3.455-28.077-1.407-8.783 1.654-.148.814-.074 4.443-.42h.049l10.834-.641.222-.025h.099l.518-.024.889-.05 1.036-.345 1.185-.395.32-.123 1.185-.494.543-.222 1.16-.493.568 4.589-5.726 8.364z" fill="#fff"/><path d="M96.817 112.475s-.567 4.12-.74 5.082c-.025.099-.025.148-.025.173 0 .024-.025.024-.05.049-.394.296-3.232 1.258-5.38 1.974-1.406.469-2.517.814-2.517.814l-7.157-6.661s-.666-.469 1.851-.42c.124 0-.123-.789-.074-.937 0-.025.025-.025.025-.025h.148c.124 0 .247 0 .37-.025.519-.098.987-.419 1.382-.863.617-.666 1.086-1.629 1.456-2.566.593-1.505.864-2.936.864-2.936s.346-.42.889-.913c1.16-1.086 3.233-2.517 4.368-.518.32.567.567 1.381.716 2.541.098.814.222 1.505.37 2.122.247 1.036.567 1.776.888 2.27.05.074.099.123.124.197 1.16 1.579 2.492.642 2.492.642z" fill="#F28389"/><path d="M35.711 166.803l1.555.691-.444 1.282a.386.386 0 0 1-.272.247.9.9 0 0 1-1.135-1.061l.296-1.159z" fill="#F16B6C"/><path d="M42.621 156.958l-1.012 1.185-.765.863a8.198 8.198 0 0 0-1.604 2.763l-.592 1.703-.987 2.862-1.703-.74a.308.308 0 0 0-.494-.223c-.024 0-.024.025-.05.025l-.863.888-3.825 3.973a4.21 4.21 0 0 1-1.407.962 4.254 4.254 0 0 1-1.678.345.882.882 0 0 1-.814-1.209l2.048-5.132c.173-.419.37-.789.617-1.159.099-.124.173-.247.271-.37l.42-.494 6.54-8.043 5.898 1.801z" fill="#F28389"/><path d="M94.448 111.266l-3.973 4.663a2.144 2.144 0 0 1-3.011.222l-4.196-3.627.519 5.848 5.059 3.034 2.591.716 2.197-5.995.814-4.861z" fill="#F16B6C"/><g opacity=".15" fill="#6457A4"><path opacity=".15" d="M84.6 113.98l6.492 6.415-2.69 4.293-8.145-10.289 4.344-.419z"/><path opacity=".15" d="M101.259 109.711l-2.22 8.068-.1 1.283-3.578 3.504-4.54-2.443h-.026l-.098-.049v-.05l.098-.197 3.628-7.944.519-.025.888-.074 1.061-.321 1.16-.395.321-.123 2.887-1.234z"/></g><path d="M90.524 119.753l-2.813 4.49-8.91-11.275 4.443-.42h.024l7.256 7.205zm7.848-8.808l-2.295 6.637-.074.222-1.407 4.095-3.406-1.801-.567-.296-.099-.049 3.579-7.846.098-.197c.05.074.296.024.346.074h.642a5.638 5.638 0 0 0 1.678-.321l1.184-.395.321-.123z" fill="#fff"/><path d="M138.229 99.62v4.145c0 .912-.271 1.776-.765 2.491a4.604 4.604 0 0 1-2.246 1.777c-3.702 1.332-9.254 4.194-14.684 7.179-5.948 3.282-11.772 6.761-14.857 8.636-1.579.962-2.715 2.492-3.134 4.293-2.789 12.064 2.641 24.055 2.641 24.055s-.864 1.406-2.222 3.084c-1.702 2.122-4.17 4.663-6.638 5.378-1.086.321-2.172-.542-2.147-1.677l.542-28.768.05-2.344v-.049c.05-2.418.518-4.811 1.382-7.056l4.121-10.807 3.875-1.061 34.082-9.276z" fill="#6457A4"/><path d="M104.147 108.922l-9.428 21.317.05-2.344v-.05a20.87 20.87 0 0 1 1.382-7.056l4.121-10.806 3.875-1.061z" fill="#4E4688"/><path d="M89.932 122.96l-3.752 21.268 3.752 4.909 3.38-5.477-1.085-20.823-2.295.123z" fill="#FCB713"/><path d="M90.5 124.589l-2.37 5.378-2.394 5.354-.222-.148 7.7-8.758 1.061-1.209-.74 1.431-6.639 13.002-.37-.296 4.442-4.219 4.442-4.219 1.58-1.48-1.234 1.776-4.195 6.143-2.098 3.084-2.098 3.06-.271-.247 9.402-6.316.691-.469-.543.617-6.145 6.908 5.973-7.031.148.148-9.304 6.439-.815.567.543-.814 2.073-3.084 2.098-3.084 4.17-6.168.346.296-4.417 4.219-4.467 4.219-1.012.962.642-1.233 6.688-12.953.345.222-7.799 8.66-.592.641.37-.789 2.493-5.305 2.517-5.304z" fill="#F6F7F7"/><path d="M90.252 119.901l-1.974 2.097 1.506 2.369 2.122-.124 1.037-2.936-2.69-1.406z" fill="#E96924"/><path d="M111.452 205.734a9.87 9.87 0 0 0 .346 1.53c.049.222.148.444.32.592.149.148.297.173.494.222 2.345.592 4.615.716 7.009.321-.222-.444.049-.864.494-1.012.444-.148.888-.024 1.308.074.789.198 1.505.445 2.319.617 4.097.888 7.997.839 12.069-.172a9.738 9.738 0 0 0 2.813-1.185c.222-.123.395-.271.518-.518.124-.247.05-.592 0-.863-.098-.444-.222-.889-.592-1.185-.247-.197-.518-.246-.814-.296-1.58-.271-3.135-.049-4.714-.444-2.443-.617-4.368-2.22-6.441-3.627a45.07 45.07 0 0 0-3.998-2.491c-.864-.469-1.309-.074-1.827.592-.518.641-.888 1.357-1.579 1.85-.839.617-1.802.74-2.666.123-.493-.345-.715-.962-1.086-1.455-.246-.321-.567-.691-.962-.839-.518-.197-.74-.049-1.086.37-.617.716-1.061 1.554-1.357 2.467a11.78 11.78 0 0 0-.568 5.329z" fill="#444445"/><path d="M132.824 208.473c.074-.024.148-.024.223-.049l-.075-.296c-.074.025-.148.025-.222.049l.074.296z" fill="#444445"/><path d="M111.427 205.439c0 .074.025.222.05.32a.88.88 0 0 0 .049.272c0 .074.025.123.025.197 0 .049.025.074.025.123.024.074.049.198.049.272.025.074.025.123.049.148 0 .049.025.099.025.123v.05c0 .024 0 .024.025.049 0 .025 0 .049.024.099.025.049.025.123.05.197.024.074.049.173.098.271 0 .025 0 .025.025.074.025.05.049.173.074.222 2.542.889 4.961.938 7.601.593-.074-.321 0-1.012.37-1.061.543-.099 1.086.074 1.555.148.494.049.815.197 1.259.32h.025c.271.074.592.173.863.247 1.21.296 2.567.617 3.776.691 1.53.074 2.913-.049 4.344-.123.296-.025.518-.05.716-.074.222-.025.419-.05.543-.074 1.53-.247 2.961-.568 4.393-1.111.098-.024.123-.049.172-.074.074-.024.148-.074.198-.098l.098-.05c.025-.024.05-.024.074-.024.445-.272.864-.518 1.185-.938.025-.025 0-.049.025-.123.024-.074.024-.222.024-.321v-.173c0-.123-.024-.246-.049-.37-.074.05-.074.074-.148.124-.987.641-1.678 1.085-2.937 1.381-2.196.543-4.96.864-7.182.962-1.085.05-2.418-.148-3.183-.271-1.678-.271-3.184-.715-4.517-1.086-1.061-.296-1.209-.345-2.147-.444-.32-.024-.493.025-.962.025-2.123 0-4.418-.099-6.54-.444-.05-.049-.124-.074-.124-.049z" fill="#000"/><path d="M111.452 205.76c-.025.098.025.172.049.271v.025c0 .024.025.123.025.172 0 .05.025.074.025.124 0 .049.024.074.024.123a.46.46 0 0 0 .05.173c.025.049.025.123.049.148.025.025 0 .049.025.074 0 .025 0 .025.025.049v.05c0 .024 0 .024.024.049 0 .025 0 .049.025.074v.025c.025.049.025.123.049.197.025.074.05.173.099.271 0 .025 0 .025.025.074.024.05.049.173.074.222 2.542.889 4.96.938 7.601.593 0-.37-.049-.987.395-1.086.543-.099 1.036.074 1.555.148.419.049.814.222 1.234.321h.024c.296.074.568.172.864.247 1.259.32 2.517.592 3.825.715h.099a43.197 43.197 0 0 0 3.579-.099c.222-.024.444-.024.666-.049.222-.025.494-.049.716-.074l.567-.074c1.407-.197 2.74-.494 4.072-.987.124-.049.223-.099.297-.123.074-.025.123-.05.172-.074.074-.025.148-.074.198-.099l.098-.049c.025-.025.025-.025.075-.025.468-.247.913-.444 1.184-.938.025-.049 0-.049.025-.123 0-.074.024-.222.024-.321v-.098c0-.025.025-.05 0-.05-.024 0 .124-.049-.049-.024-.049.024.469-.321-.222.197-.716.493-1.505 1.012-3.011 1.357-2.665.567-7.379 1.11-10.143.641-2.764-.468-4.171-1.357-6.762-1.505-2.542-.222-5.158-.098-7.651-.542.025 0 0 0 0 0zm12.34-8.143c.148.099.271.173.419.272-.246.444-.518.888-.765 1.332a.28.28 0 0 1-.172.123c-.075.025-.099 0-.149-.024-.098-.099-.172-.173-.098-.321.222-.469.518-.913.765-1.382zm.691 2.221c-.05.074-.099.098-.173.098-.074.025-.123 0-.148-.024-.099-.099-.173-.173-.099-.321.222-.444.519-.864.741-1.308.148.099.271.173.419.272-.222.419-.493.863-.74 1.283zm1.036.641c-.049.074-.098.099-.172.099-.074 0-.099 0-.148-.05-.099-.098-.173-.197-.075-.321.223-.419.494-.838.741-1.258.148.099.271.198.419.296-.246.42-.518.839-.765 1.234z" fill="#232323"/><path d="M15.992 242.644c-.024.049-.197.197-.197.246 0 .074-.074.124-.074.173-.025.05-.025.074-.05.124-.024.049-.024.074-.049.123s-.05.123-.074.148a.351.351 0 0 0-.05.148c-.024.049-.024.049-.024.074-.025.025-.025.049-.025.099-.024.024-.024.074-.049.098 0 .025 0 0-.025.05-.024.049-.05.148-.074.197-.024.074-.074.197-.074.247-.024.049 0 .024-.024.098-.025.05-.05.173-.074.247 1.604 2.245 3.48 3.824 5.923 5.157.098-.321.468-.839.839-.691.543.197.888.641 1.308.937.42.296.666.617 1.036.938v.025c.222.197.47.444.716.616 1.086.741 2.27 1.505 3.504 1.826 1.555.395 3.011.296 4.517.272.296 0 .518-.025.74-.025h.568a27.03 27.03 0 0 0 4.491-.592c.1-.025.124-.05.198-.05a1.51 1.51 0 0 0 .197-.074c.05-.024.074-.024.099-.024.025 0 .05-.025.074-.025.469-.197.888-.395 1.283-.765.025-.024.025-.074.025-.123.025-.05.05-.222.05-.296 0-.074.024-.099 0-.173-.025-.049.049 0 .049-.025-.74-1.036.296-1.209-1.358-1.875-1.431-.567-3.553-.345-5.43-1.036-1.9-.691-3.454-4.54-4.071-6.168-.617-1.604.123-.839-1.136-.789-1.283.049-3.208 1.011-4.368-.025-1.184-1.036.222-2.221-.42-3.38-.64-1.16-.542-1.209-2.369-.518-1.604.567-4.812 2.738-5.602 4.811z" fill="#444445"/><path d="M34.033 253.722c.074 0 .148-.025.222-.025 0-.098-.025-.197-.025-.321-.074 0-.148.025-.222.025.025.099.025.222.025.321z" fill="#444445"/><path d="M16.091 242.373c-.05.049-.123.197-.173.271-.05.074-.098.173-.123.247-.025.074-.05.123-.074.173-.025.049-.025.074-.05.123a2.612 2.612 0 0 1-.098.247.404.404 0 0 1-.074.148c-.025.049-.025.098-.05.123 0 .025 0 .025-.024.049 0 .025 0 .025-.025.05-.025.024-.025.049-.025.098-.024.05-.05.124-.074.198a3.98 3.98 0 0 0-.074.271c0 .025 0 .025-.024.074-.025.05-.05.173-.074.222 1.604 2.245 3.48 3.824 5.898 5.157.099-.321.469-.839.839-.691.543.197.888.641 1.308.937.42.296.666.617 1.037.938v.025c.222.197.468.444.715.616 1.086.741 2.27 1.505 3.505 1.826 1.554.395 3.01.296 4.516.272.296 0 .518-.025.74-.025h.568a27.03 27.03 0 0 0 4.492-.592c.098-.025.123-.05.197-.05a1.51 1.51 0 0 0 .197-.074c.05-.024.075-.024.1-.024.024 0 .049-.025.073-.025.47-.197.889-.395 1.284-.765.024-.024.024-.074.024-.123.025-.049.05-.222.05-.296v-.568c-.074.025-.074.074-.173.124-1.086.468-1.802.814-3.085.962-2.221.247-4.96.518-7.206.469-1.086-.025-2.296-.568-3.011-.913-1.555-.765-2.715-1.925-3.727-2.887-.814-.765-.888-1.036-1.653-1.653-.272-.222-.42-.271-.765-.543-1.703-1.258-3.381-2.788-4.887-4.342-.025 0-.025-.099-.074-.049z" fill="#000"/><path d="M15.918 242.644a.47.47 0 0 0-.123.246v.025c0 .025-.05.123-.074.148-.025.049-.025.074-.05.123-.024.05-.024.074-.049.124-.025.049-.05.123-.074.148a.346.346 0 0 0-.05.148c-.024.024-.024.049-.024.074 0 .024-.025.049-.025.049 0 .025 0 .025-.024.049 0 .025 0 .025-.025.05 0 .024-.025.049-.025.074 0 .025 0 0-.024.049-.025.05-.05.148-.075.198-.024.074-.073.197-.073.246-.025.05 0 .025-.025.099-.025.049-.05.173-.074.247 1.604 2.245 3.48 3.824 5.898 5.156.198-.321.42-.839.864-.691.518.198.864.617 1.308.963.346.271.666.616.987.912l.025.025c.247.197.469.444.715.617a14.883 14.883 0 0 0 3.554 1.875c.025 0 .074.025.1.025 1.233.222 2.467.296 3.726.246.222 0 .469-.049.69-.074.223-.024.519-.024.716-.024h.568a29.348 29.348 0 0 0 4.146-.518c.123-.025.222-.05.321-.074.099-.025.123-.05.197-.05.074-.024.149-.049.198-.074.05-.024.05-.024.099-.024.024-.025.049-.025.074-.025.493-.173.913-.346 1.258-.74.025-.025.025-.074.025-.124.025-.049.05-.222.05-.271v-.123c0-.05.024-.025 0-.074-.025-.025.123 0-.025-.05-.05-.024.42-.148-.37.222s-1.63.74-3.135.864c-2.665.222-7.305.666-9.872-.568-2.566-1.233-3.48-2.96-5.602-4.515-1.974-1.48-3.9-3.207-5.7-4.983zm14.462.221c.05.124.099.247.124.395-.445.247-.913.493-1.333.715-.074.05-.123.05-.197.025-.075-.025-.1-.049-.1-.099-.024-.148 0-.222.149-.296.444-.246.913-.493 1.357-.74zm-.839 2.024c-.074.049-.123.049-.197.024-.074-.024-.099-.024-.099-.098 0-.148 0-.222.123-.296.42-.247.889-.469 1.309-.716.049.124.098.247.123.37a20.6 20.6 0 0 1-1.259.716zm.395.937c-.074.05-.123.05-.197.025-.074-.025-.1-.025-.1-.099-.024-.148 0-.222.124-.296.395-.246.84-.493 1.259-.715l.148.37c-.395.222-.839.469-1.234.715z" fill="#232323"/><path opacity=".07" d="M77.913 261H15.795c-4.27 0-7.75-3.478-7.75-7.747 0-4.268 3.48-7.747 7.75-7.747h62.118c4.27 0 7.75 3.479 7.75 7.747a7.73 7.73 0 0 1-7.75 7.747z" fill="#6457A4"/><path opacity=".39" d="M88.821 164.977l-.543.222s-1.555.839-2.912 1.554a6.117 6.117 0 0 0 1.234-3.454l1.382-27.781.296-5.97.543 35.429z" fill="#C9BDA3"/><path d="M88.08 133.643l-.098 1.875-1.382 27.781a6.578 6.578 0 0 1-1.234 3.454 6.35 6.35 0 0 1-2.246 1.875c-5.923 2.862-11.97 5.453-16.732 7.402a281.881 281.881 0 0 1-6.047 2.393c-1.258.469-2.517-.666-2.172-1.949l9.872-37.551.543-2.097c.074-.271-.247-.444-.444-.271l-26.53 23.167-.963-.395-4.27-1.776a1.408 1.408 0 0 1-.765-.741c-.197-.468-.172-1.036.173-1.48l29.369-37.896a7.449 7.449 0 0 1 4.244-2.689l6.935-1.53 9.551 13.051a11.68 11.68 0 0 1 2.197 7.377z" fill="#6457A4"/><path d="M88.08 133.643l-.098 1.875-18.584-20.773 6.935-1.53 9.551 13.051a11.68 11.68 0 0 1 2.197 7.377z" fill="#4E4688"/><path opacity=".2" d="M68.016 138.874l-1.653 37.132a287.29 287.29 0 0 1-6.047 2.393c-1.258.468-2.517-.666-2.171-1.949l9.871-37.576zm52.518-23.636c-5.948 3.281-11.772 6.76-14.857 8.635-1.579.962-2.715 2.492-3.134 4.293-2.789 12.065 2.641 24.055 2.641 24.055s-.864 1.407-2.222 3.084c-3.159-3.281-3.75-13.816-3.75-21.218 0-4.638 2.566-8.906 6.687-11.102l14.635-7.747z" fill="#000"/><path d="M91.881 163.718a44.749 44.749 0 0 1-.42 3.109 45.606 45.606 0 0 1-.64 3.084c-.272 1.012-.544 2.023-.914 3.01-.37.987-.79 1.949-1.382 2.813.123-.247.222-.469.346-.691.098-.247.197-.469.296-.716.098-.246.197-.493.271-.74a8.66 8.66 0 0 0 .247-.74c.173-.493.32-.987.469-1.48.123-.494.271-1.012.395-1.505.271-1.012.493-2.023.69-3.06.1-.518.223-1.011.322-1.529.123-.519.222-1.037.32-1.555z" fill="#231F20"/><path opacity=".4" d="M116.018 165.52l-24.408 8.092c-2.517 1.061-4.442 3.158-5.356 5.724l-8.267 21.391c.099-.444 6.565-29.706 13.919-30.495 7.404-.765 24.112-4.712 24.112-4.712z" fill="#000"/><path opacity=".2" d="M117.918 193.3l-3.899.913 1.999-28.693 1.9 27.78zm-46.619 18.751l-.346.345c-.099.074-.222.148-.32.222l-34.354 23.858-4.097-1.505 39.117-22.92z" fill="#000"/><path d="M93.313 109.415c-3.554.937-5.825.419-7.207-.296.321-.79.543-1.554.667-2.122a7.146 7.146 0 0 0 2.32 1.48c.37.148.765.247 1.16.321.42.074.863.123 1.308.123.542 0 1.06-.074 1.579-.172.074.222.123.444.173.666zm-52.691 49.863a8.806 8.806 0 0 0-1.382 2.491l-.592 1.703a14.867 14.867 0 0 0-1.259-2.295c-.617-.987-2.468-2.714-2.098-4.021a.833.833 0 0 1 .272-.42c.148.321.395.592.765.74l4.294 1.802z" fill="#F16B6C"/><path opacity=".35" d="M79.961 99.25l.346 1.308a3.874 3.874 0 0 0 2.27 2.566l.42.148a7.77 7.77 0 0 0 1.95 3.281l12.561-3.627c.05.124.222.148.346.099.123-.074.172-.197.222-.321l.148-.37c.123-.715.148-1.48.05-2.22l-.346-2.936-.296-2.394a7.793 7.793 0 0 0-8.687-6.81 7.802 7.802 0 0 0-6.072 4.27 7.652 7.652 0 0 0-.814 3.256v.222c0 .32.025.617.05.938l.123 1.085.024.173-.962-.148c-.864-.124-1.555.666-1.333 1.48z" fill="#000"/><path opacity=".19" d="M99.655 90.047c0 .025-.024.074-.024.099.024-.025.024-.05.024-.099z" fill="#fff"/><path d="M97.484 94.094c-.642.197-1.284.346-1.925.444-.124.025-.247.025-.346.05-1.407.172-2.863.148-4.27.049-1.209-.074-2.443-.222-3.578-.666-2.172-.864-2.912.148-3.578 2.121-.247.74-.667 1.259-1.086 1.752l-.445.074-.024-.172-.05-.395-.074-.716c-.05-.32-.05-.641-.05-.937v-.222c.026-1.16.322-2.27.815-3.282a7.803 7.803 0 0 1 6.072-4.268c2.986-.37 5.8 1.036 7.403 3.355.025.05.05.1.099.124.099.148.197.32.296.493.321.716.593 1.431.74 2.196z" fill="#F97C15"/><path d="M82.676 97.844a6.896 6.896 0 0 0-.814 1.16c-.395.765.148 2.541.937 4.219l-.246-.099c-.766-.296-1.407-.864-1.851-1.554a3.72 3.72 0 0 1-.445-1.012l-.345-1.308a1.184 1.184 0 0 1 1.308-1.48l.962.148" fill="#F28389"/><path d="M102.79 88.913c-.124.345-.272.69-.445 1.036a8.275 8.275 0 0 1-4.861 4.145 8.92 8.92 0 0 0-.79-2.147c-.099-.172-.198-.32-.296-.493-.025-.05-.05-.099-.1-.123-1.603-2.32-4.392-3.726-7.403-3.356a7.803 7.803 0 0 0-6.885 7.55v.222c0 .32.024.617.049.937l.074.716.05.395.024.172-.395-.049-.567-.099a1.175 1.175 0 0 0-1.333.987 1.13 1.13 0 0 0 .024.494l.346 1.307c.099.37.247.691.444 1.012a3.832 3.832 0 0 0 1.851 1.554l.247.099c.148.321.32.666.494.987.32.592.69 1.283 1.16 1.776.197.222.74.888.962.987-2.567-1.209-4.985-2.887-6.639-5.156-.099-.124-.172-.247-.271-.371-1.678-2.467-2.394-5.699-1.432-8.536.222-.666.568-1.332 1.062-1.85.888-.938 2.22-1.358 3.48-1.703-.692-1.184-.173-2.714.666-3.775 1.801-2.294 5.084-3.281 7.848-2.344.79.272 1.456.494 2.122-.123 1.135-1.06 1.827-2.492 2.986-3.528 1.358-1.234 3.209-1.431 4.862-.617 3.431 1.628 3.776 6.686 2.666 9.894z" fill="#F97C15"/><path d="M98.2 102.358a7.85 7.85 0 0 1-3.875 5.527 5.15 5.15 0 0 1-.519.271 7.899 7.899 0 0 1-1.727.568 1.223 1.223 0 0 1-.296.049c-.124.025-.222.025-.346.05a7.253 7.253 0 0 1-2.196-.05 7.07 7.07 0 0 1-2.246-.74 9.48 9.48 0 0 1-1.48-.962 3.735 3.735 0 0 1-.569-.518 7.766 7.766 0 0 1-1.628-2.393 5.708 5.708 0 0 1-.321-.913l-.173-.074c-.814-1.678-1.333-3.454-.938-4.22.444-.838 1.061-1.38 1.53-2.146.148-.246.272-.493.37-.79.667-1.973 1.407-2.985 3.579-2.121 1.135.444 2.37.592 3.579.666 1.53.099 3.11.123 4.64-.099.147-.024.27-.049.419-.074.123-.024.222-.049.345-.074.074 0 .124-.024.198-.049.024 0 .05 0 .074-.025.05 0 .099-.024.148-.049.025 0 .074-.025.099-.025.049-.024.098-.024.172-.049.025 0 .074-.025.099-.025.05-.024.099-.024.148-.05.074-.024.173-.048.247-.073.05.222.099.469.123.715l.124.987.024.296.025.222.025.198.05.493.024.198.345 2.936c.074.863.05 1.628-.074 2.343z" fill="#F28389"/><path d="M95.559 94.538c.148-.025.271-.05.42-.074-.149.025-.297.05-.42.074z" fill="#FF8500"/><path d="M102.345 89.95c-.394 1.504-1.999 3.38-2.542 3.971-.715.815-1.456 1.653-1.999 2.566l-.024-.197-.173-1.505c-.025-.247-.074-.469-.123-.715a8.073 8.073 0 0 0 4.861-4.12zm-16.93 17.022c-2.566-1.209-4.985-2.886-6.638-5.156a7.148 7.148 0 0 1 .024-1.259c.074-.592.247-1.233.716-1.579.123-.098.271-.148.42-.222a1.13 1.13 0 0 0 .024.494l.346 1.307c.098.37.246.691.444 1.012a3.826 3.826 0 0 0 1.85 1.554l.248.099c.148.321.32.666.493.987.321.592.691 1.283 1.16 1.776.173.198.716.888.913.987zm1.012-15.346c3.085.173 5.825 2.27 8.761 2.936-1.406.173-2.862.148-4.27.05-1.208-.075-2.442-.223-3.578-.667-2.171-.863-2.912.148-3.578 2.122-.247.74-.666 1.258-1.086 1.752l-.444.074-.395-.05a3.4 3.4 0 0 0 .32-.493c.297-.543.445-1.209.544-1.826.172-1.135.296-2.393 1.11-3.158.691-.617 1.703-.79 2.616-.74z" fill="#EA6400"/><path d="M96.176 94.736h-.124l-.592-.025c.05-.025.099-.025.148-.05.197-.049.395 0 .568.075zm1.085.024c-.345.025-.715 0-1.06-.025h-.025l1.085.025z" fill="#FF8500"/><path d="M97.73 95.772c-2.344 1.16-5.256.987-7.823.32-1.259-.32-2.567-.764-3.85-.493-.963.222-1.777.79-2.64 1.258.147-.246.27-.493.37-.789.666-1.974 1.406-2.985 3.578-2.122 1.135.444 2.37.592 3.579.666 1.53.099 3.11.124 4.64-.098.147-.025.27-.05.419-.074.123-.025.222-.05.345-.074.074 0 .124-.025.198-.05.024 0 .05 0 .074-.024.05 0 .099-.025.148-.05.025 0 .074-.024.099-.024.049-.025.098-.025.172-.05.025 0 .074-.024.1-.024.048-.025.098-.025.147-.05.074-.024.173-.05.247-.074.05.222.099.469.123.716l.074 1.036z" fill="#F16B6C"/><path d="M315.427 126.192c-.222.074-.469.123-.716.172-.098.025-.197.025-.296.05h-26.95c-10.217-1.135-19.398-3.158-22.482-5.033-2.641-1.604-4.591-3.479-5.874-5.428-2.345-3.578-2.468-7.352-.716-10.066.321-.518.666-1.012 1.037-1.505.098-.124.172-.247.271-.37.099-.124.173-.247.272-.371a22.486 22.486 0 0 1 1.777-2.097l.32-.32c.05-.05.099-.099.173-.148.148-.148.296-.272.444-.42.074-.074.148-.123.222-.197.075-.05.124-.124.198-.173l.074-.074c1.012-.864 2.122-1.678 3.48-2.615a99.665 99.665 0 0 1 2.863-6.316 76.304 76.304 0 0 1 1.974-3.701.184.184 0 0 0 .049-.099c.074-.123.124-.246.198-.345 0-.025.024-.025.024-.05.124-.221.247-.419.371-.641.024-.025.024-.05.049-.074.148-.222.271-.444.419-.69.025-.05.074-.1.099-.149 2.814-4.49 6.219-8.438 10.365-10.732.025 0 .025-.025.05-.025.123-.074.247-.123.37-.197l.296-.148c.148-.074.321-.148.469-.222.025 0 .049-.025.074-.025.025 0 .049-.025.074-.025 2.197-1.011 4.122-1.603 5.8-1.973h.024c.075-.025.149-.025.223-.05l1.258-.271.815.05-.173-4.64a12.7 12.7 0 0 1 .123-2.17c.445-2.764 1.679-9.647 3.48-10.634 1.357-.74 2.665-.592 3.653.345.123.148.246.272.37.42.469.592.814 1.406 1.012 2.393.617 3.158 2.468 4.268 5.108 4.663 1.58.247 1.975-1.011 2.542-2.344.37-.913.839-1.85 1.753-2.393 2.295-1.406 3.479 2.665 5.478 3.33 1.506.494-6.49 6.958-10.538 10.141h-.222c-.691 0-1.333.296-1.95.617-.024 0-.024-.025-.049-.025a1.226 1.226 0 0 0-.395-.074c-1.234-.617-2.813-.69-3.776.469-.098.123-.172.247-.246.37l-.075.148c-.197.469-.222 1.011 0 1.48.297.666.938 1.16 1.703 1.16.568 0 1.012-.272 1.333-.69-.099.418-.222.838-.321 1.257a35.97 35.97 0 0 0-.666 3.232c-.074.543-.173 1.086-.222 1.629-.025.271-.074.543-.099.839-.025.32-.025.616-.025.937 0 .518-.098 1.061-.123 1.604-.049.592-.049 1.16-.049 1.752 0 .345.37.567.666.567.296 0 .642-.247.666-.567.05-.568.074-1.11.124-1.678.024-.518.024-1.061.098-1.58.025-.147.074-.27.099-.394.025-.148.025-.271.049-.42l.075-.838a36.14 36.14 0 0 1 .197-1.629c.148-1.085.271-2.195.419-3.281.099-.715.223-1.406.346-2.097.173.567.346 1.11.494 1.678a22.95 22.95 0 0 1 .691 4.835c.049 1.58-.198 3.183-.371 4.762-.049.32.173.617.469.716.296.074.667-.075.765-.37.346-1.061.469-2.172.543-3.282a19.092 19.092 0 0 0-.419-5.156 16.744 16.744 0 0 0-.79-2.616c.222.1.444.198.691.272.494.123 1.012.099 1.456-.124 9.28 5.181 12.71 16.185 14.487 26.005.395 2.245.987 5.206 1.333 8.314.74 7.254.271 15.346-6.812 17.345z" fill="#fff"/><path opacity=".3" d="M315.427 126.192c-.222.074-.469.123-.716.172-.098.025-.197.025-.296.05h-26.95c-10.217-1.135-19.398-3.158-22.482-5.033-2.641-1.604-4.591-3.479-5.874-5.428-2.345-3.578-2.468-7.352-.716-10.066.321-.518.666-1.012 1.037-1.505.098-.124.172-.247.271-.37.099-.124.173-.247.272-.371a22.486 22.486 0 0 1 1.777-2.097l.32-.32c.05-.05.099-.099.173-.148.148-.148.296-.272.444-.42.074-.074.148-.123.222-.197.075-.05.124-.124.198-.173l.074-.074c1.012-.864 2.122-1.678 3.48-2.615a99.665 99.665 0 0 1 2.863-6.316 76.304 76.304 0 0 1 1.974-3.701.184.184 0 0 0 .049-.099c.074-.123.124-.246.198-.345 0-.025.024-.025.024-.05.124-.221.247-.419.371-.641.024-.025.024-.05.049-.074.148-.222.271-.444.419-.69.025-.05.074-.1.099-.149 2.814-4.49 6.219-8.438 10.365-10.732.025 0 .025-.025.05-.025.123-.074.247-.123.37-.197l.296-.148c.148-.074.321-.148.469-.222.025 0 .049-.025.074-.025.025 0 .049-.025.074-.025 2.197-1.011 4.122-1.603 5.8-1.973h.024c.075-.025.149-.025.223-.05l1.258-.271.815.05-.173-4.64a12.7 12.7 0 0 1 .123-2.17c.445-2.764 1.679-9.647 3.48-10.634 1.357-.74 2.665-.592 3.653.345.123.148.246.272.37.42.469.592.814 1.406 1.012 2.393.617 3.158 2.468 4.268 5.108 4.663 1.58.247 1.975-1.011 2.542-2.344.37-.913.839-1.85 1.753-2.393 2.295-1.406 3.479 2.665 5.478 3.33 1.506.494-6.49 6.958-10.538 10.141h-.222c-.691 0-1.333.296-1.95.617-.024 0-.024-.025-.049-.025a1.226 1.226 0 0 0-.395-.074c-1.234-.617-2.813-.69-3.776.469-.098.123-.172.247-.246.37l-.075.148c-.197.469-.222 1.011 0 1.48.297.666.938 1.16 1.703 1.16.568 0 1.012-.272 1.333-.69-.099.418-.222.838-.321 1.257a35.97 35.97 0 0 0-.666 3.232c-.074.543-.173 1.086-.222 1.629-.025.271-.074.543-.099.839-.025.32-.025.616-.025.937 0 .518-.098 1.061-.123 1.604-.049.592-.049 1.16-.049 1.752 0 .345.37.567.666.567.296 0 .642-.247.666-.567.05-.568.074-1.11.124-1.678.024-.518.024-1.061.098-1.58.025-.147.074-.27.099-.394.025-.148.025-.271.049-.42l.075-.838a36.14 36.14 0 0 1 .197-1.629c.148-1.085.271-2.195.419-3.281.099-.715.223-1.406.346-2.097.173.567.346 1.11.494 1.678a22.95 22.95 0 0 1 .691 4.835c.049 1.58-.198 3.183-.371 4.762-.049.32.173.617.469.716.296.074.667-.075.765-.37.346-1.061.469-2.172.543-3.282a19.092 19.092 0 0 0-.419-5.156 16.744 16.744 0 0 0-.79-2.616c.222.1.444.198.691.272.494.123 1.012.099 1.456-.124 9.28 5.181 12.71 16.185 14.487 26.005.395 2.245.987 5.206 1.333 8.314.74 7.254.271 15.346-6.812 17.345z" fill="#FCB713"/><path opacity=".8" d="M308.616 59.947c-.568 1.332-.963 2.59-2.542 2.344-2.641-.395-4.492-1.48-5.084-4.663-.198-1.011-.543-1.801-1.012-2.393 3.628 3.947 6.737 4.737 8.638 4.712z" fill="#FCB713"/><path opacity=".5" d="M320.98 120.541c-.296 2.196-2.221 3.849-4.245 4.787-5.775 2.714-12.043 1.085-18.139 1.085-3.628 0-7.527.395-11.155 0-10.217-1.135-19.398-3.158-22.483-5.033-2.641-1.603-4.59-3.479-5.874-5.428-2.344-3.577-2.468-7.352-.716-10.066 1.333-2.048 2.839-3.997 4.69-5.6 4.393-3.775 6.046-8.808 8.958-13.669 2.962-4.959 6.836-9.918 12.192-12.41.024 0 .049-.024.074-.024.025 0 .049-.025.074-.025.716-.296 3.48-1.357 5.8-1.974h.024c.074-.025.148-.05.222-.05.445-.123.864-.197 1.259-.27.296-.05.568-.075.814-.1.494-.024.864.025 1.037.223.049.049.074.123.074.222v.123c-.099.642-1.135 1.629-1.505 2.196a51.77 51.77 0 0 0-3.949 7.278c-1.728 3.874-2.986 8.019-3.529 12.213a26.144 26.144 0 0 1-2.912 9.153c-1.062 1.974-3.085 3.158-3.949 5.255-1.752 4.219 2.517 5.7 5.429 7.303 2.912 1.604 5.874 3.084 9.033 4.096 4.59 1.456 9.403 2.146 14.191 2.196 1.283.024 14.56-1.209 14.585-1.481z" fill="#FCB713"/><path opacity=".8" d="M295.61 110.106a7.873 7.873 0 0 1-1.777-.814 16.216 16.216 0 0 1-1.284-.913c-.345-.296-.641-.592-.839-.864a18.032 18.032 0 0 0-.444-.592c-.099-.148-.148-.271-.148-.394-.025-.124.049-.247.222-.395l1.382-1.259c.148-.148.296-.197.469-.172.173.024.346.197.543.469.296.419.691.814 1.111 1.208.444.395.937.691 1.456.913l1.283-4.959a19.148 19.148 0 0 1-1.555-1.258 7.806 7.806 0 0 1-1.332-1.53 5.579 5.579 0 0 1-.79-1.85c-.148-.69-.124-1.431.099-2.295.148-.616.394-1.16.74-1.653a4.365 4.365 0 0 1 1.283-1.233c.519-.321 1.136-.543 1.851-.666.716-.124 1.506-.1 2.394.049l.198-.814c.024-.124.098-.247.222-.296a.492.492 0 0 1 .37-.05l.321.074a.46.46 0 0 1 .296.222.491.491 0 0 1 .049.37l-.222.84a9.34 9.34 0 0 1 1.506.69c.468.272.863.543 1.209.814.345.272.617.543.839.765.222.222.37.395.469.518a.497.497 0 0 1 .148.444.923.923 0 0 1-.197.445l-1.407 1.209c-.296.246-.543.246-.765.024-.296-.32-.642-.69-1.062-1.085a7.016 7.016 0 0 0-1.456-1.037l-1.209 4.639c.494.37 1.012.814 1.555 1.283a7.892 7.892 0 0 1 1.407 1.603c.395.592.691 1.234.888 1.949.198.716.173 1.481-.049 2.295-.37 1.382-1.111 2.418-2.246 3.109-1.135.69-2.591.863-4.319.518l-.691 2.64c-.025.123-.123.222-.247.296a.538.538 0 0 1-.395.024c-.148-.049-.321-.098-.493-.197-.173-.099-.222-.247-.173-.469l.79-2.615zm3.973-15.395c-.666-.074-1.209 0-1.604.271-.42.247-.666.617-.814 1.11-.124.518-.075.962.148 1.382.246.42.641.863 1.184 1.382l1.086-4.145zm-1.974 12.977c.592.074 1.11.025 1.555-.197.444-.222.74-.592.888-1.185a2.439 2.439 0 0 0-.099-1.505c-.197-.518-.592-1.036-1.184-1.579l-1.16 4.466zm9.427-35.651c-.37-.642-1.012-.987-1.727-1.037h-.223c-.691 0-1.332.297-1.949.617-.025 0-.025-.024-.05-.024a1.225 1.225 0 0 0-.394-.074c-1.234-.617-2.814-.691-3.776.468-.099.124-.173.247-.247.37l-.074.148c-.198.47-.222 1.012 0 1.48.296.667.938 1.16 1.703 1.16.567 0 1.012-.271 1.332-.69-.098.419-.222.838-.32 1.258a35.627 35.627 0 0 0-.667 3.232c-.074.543-.172 1.086-.222 1.628-.025.272-.074.543-.099.84-.024.32-.024.616-.024.937 0 .518-.099 1.06-.124 1.603-.049.593-.049 1.16-.049 1.752 0 .346.37.567.666.567.296 0 .642-.246.667-.567.049-.567.074-1.11.123-1.678.025-.518.025-1.06.099-1.579.024-.148.074-.271.099-.394.024-.148.024-.272.049-.42.025-.271.049-.567.074-.839.049-.543.123-1.085.197-1.628.148-1.086.272-2.196.42-3.281.099-.716.222-1.407.345-2.098.173.568.346 1.11.494 1.678.395 1.58.642 3.208.691 4.836.049 1.579-.197 3.183-.37 4.762-.05.32.173.616.469.715.296.074.666-.074.765-.37.345-1.06.469-2.171.543-3.281a19.133 19.133 0 0 0-.42-5.157 16.638 16.638 0 0 0-.79-2.615c.223.099.445.197.691.271.494.124 1.012.099 1.456-.123.198-.099.371-.222.519-.395.444-.543.493-1.43.123-2.072zm-2.542.37c.296-.025.568.025.765.099l.148.073c.025.025.05.025.074.05 0 0-.024 0-.049-.025.025.025.074.05.099.074-.05-.025.098.148.074.099.024.025.024.074.049.123v.173c-.025 0-.049.025-.049.025h.024-.123c-.049 0-.123-.025-.173-.025a.566.566 0 0 1-.098-.025c-.05-.024-.099-.024-.149-.05-.098-.048-.222-.098-.32-.147a8.23 8.23 0 0 1-.593-.395c.074-.025.198-.05.321-.05z" fill="#FCB713"/><g opacity=".5"><path opacity=".6" d="M153.95 158.955c.025 1.431.074 2.886.099 4.317l.074 4.318c0 .099-.074.173-.148.173-.099 0-.173-.074-.173-.149l.074-4.317.074-4.342zm.271 17.27l.05 4.317.024 4.318c0 .173-.148.345-.32.345-.173 0-.346-.148-.346-.32l.025-4.318.049-4.318c0-.148.124-.271.272-.271.123 0 .246.123.246.247zm.099 17.271v8.635a.38.38 0 0 1-.37.37.38.38 0 0 1-.37-.37v-8.635a.38.38 0 0 1 .37-.371c.197.025.37.173.37.371zm-.025 17.27l-.024 4.317-.05 4.318c0 .148-.123.247-.271.247a.248.248 0 0 1-.247-.247l-.049-4.318-.025-4.317c0-.173.148-.321.321-.346.197.025.345.173.345.346zm-.172 17.271l-.074 4.12-.074 4.12c-.025-1.381-.074-2.738-.074-4.12l-.074-4.12c0-.099.074-.148.148-.148a.16.16 0 0 1 .148.148zm19.669-69.082c.099 1.431.173 2.886.222 4.317.025.716.05 1.431.074 2.171.025.716.05 1.431.05 2.172 0 .172-.148.32-.321.32a.326.326 0 0 1-.321-.32c0-.716.025-1.431.049-2.172.025-.715.05-1.431.074-2.171.025-1.431.075-2.862.173-4.317zm.346 17.27l-.025 2.171-.049 2.146c-.05 1.431-.099 2.887-.173 4.318 0 .049-.049.074-.099.074-.049 0-.074-.025-.074-.074-.074-1.431-.123-2.887-.173-4.318l-.049-2.146-.025-2.171c0-.198.148-.346.346-.346.173 0 .321.148.321.346zm17.226-34.54c.074 1.431.099 2.887.148 4.318.049 1.431.074 2.886.099 4.317 0 .148-.099.247-.247.247s-.247-.099-.247-.247c.025-1.431.049-2.886.099-4.317.049-1.456.074-2.887.148-4.318zm.345 17.27l.025 4.318v4.317a.38.38 0 0 1-.37.371.363.363 0 0 1-.37-.371v-4.317l.024-4.318c0-.197.148-.345.346-.345.197 0 .345.148.345.345zm-.074 17.271a6217.78 6217.78 0 0 1-.074 4.318l-.123 4.318c0 .024-.025.049-.049.049-.025 0-.05-.025-.05-.049l-.123-4.318c-.025-1.431-.074-2.887-.074-4.318 0-.148.123-.271.271-.271.099 0 .198.099.222.271zm20.139-34.541l.074 4.318.049 4.317c0 .074-.049.124-.123.124a.118.118 0 0 1-.124-.124l.05-4.317.074-4.318zm.222 17.27l.074 8.636a.285.285 0 0 1-.296.296.285.285 0 0 1-.296-.296l.074-8.636a.221.221 0 1 1 .444 0zm.123 17.271l.025 8.636a.337.337 0 0 1-.346.345.337.337 0 0 1-.345-.345l.025-8.636c0-.172.148-.32.32-.32.173-.025.321.123.321.32zm.025 17.27l-.025 8.635a.337.337 0 0 1-.345.346.338.338 0 0 1-.346-.346l-.024-8.635a.38.38 0 0 1 .37-.37.38.38 0 0 1 .37.37zm-.049 17.271l-.025 4.317-.025 4.318a.247.247 0 0 1-.493 0l-.025-4.318-.025-4.317c0-.173.148-.321.321-.321.124 0 .272.148.272.321zm-.148 17.27l-.124 8.636c0 .024-.025.049-.049.049-.025 0-.05-.025-.05-.049l-.123-8.636c0-.098.074-.172.173-.172.099 0 .173.074.173.172zm16.313-102.043c.098 1.431.148 2.886.197 4.317.049 1.431.074 2.887.123 4.318 0 .173-.123.321-.296.321-.172 0-.321-.124-.321-.296v-.025c.025-1.431.075-2.887.124-4.318.025-1.455.074-2.886.173-4.317zm.345 17.27c0 .716 0 1.431-.025 2.171l-.024 2.171-.025 2.122c-.025.716-.025 1.431-.049 2.171 0 .124-.099.222-.222.198a.195.195 0 0 1-.198-.198 61.504 61.504 0 0 1-.049-2.171l-.05-2.171-.024-2.171c0-.716 0-1.431-.025-2.171 0-.198.148-.37.37-.37s.321.197.321.419c0-.025 0 0 0 0z" fill="#231F20"/></g><path opacity=".3" d="M153.95 158.981a2.147 2.147 0 1 0 0-4.293 2.147 2.147 0 0 0 0 4.293zm19.842 0a2.147 2.147 0 1 0 0-4.293 2.147 2.147 0 0 0 0 4.293zm18.214-16.136a2.147 2.147 0 1 0 0-4.294 2.147 2.147 0 0 0 0 4.294zm19.842 0a2.146 2.146 0 1 0 .001-4.293 2.146 2.146 0 0 0-.001 4.293zm15.967-15.025a2.146 2.146 0 1 0 .001-4.293 2.146 2.146 0 0 0-.001 4.293z" fill="#6457A4"/><path opacity=".4" d="M243.61 118.667l-15.795 7.006-15.967 15.026h-19.842l-18.214 16.135H153.95" stroke="#6457A4" stroke-width="5" stroke-miterlimit="10" stroke-linecap="round" stroke-linejoin="round"/><path opacity=".4" d="M240.427 118.666h3.183l-2.122 2.122" stroke="#6457A4" stroke-width="5" stroke-miterlimit="10" stroke-linecap="round" stroke-linejoin="round"/></g></svg>